<svg xmlns="http://www.w3.org/2000/svg" width="133.524" height="21.306" viewBox="0 0 133.524 21.306">
  <g id="Group_598" data-name="Group 598" transform="translate(0.061 -6)">
    <path id="Path_2079" data-name="Path 2079" d="M1.742-18.2V0H8.814C14.326,0,18.1-3.64,18.1-9.1s-3.666-9.1-9.282-9.1ZM6.864-4.42v-9.36h1.69c2.574,0,4.316,1.924,4.316,4.68,0,2.782-1.69,4.68-4.316,4.68ZM22.7-14.872a2.607,2.607,0,0,0,2.756-2.574A2.572,2.572,0,0,0,22.7-19.994a2.6,2.6,0,0,0-2.782,2.548A2.615,2.615,0,0,0,22.7-14.872ZM25.09,0V-13.26H20.306V0Zm7.774.312c3.354,0,5.746-1.326,5.746-4.082,0-1.508-.624-3.146-3.276-3.978L32.916-8.5c-.546-.156-.884-.39-.884-.832,0-.6.624-.858,1.482-.858a10.145,10.145,0,0,1,4.186.884V-12.74a11.108,11.108,0,0,0-4.342-.832c-3.406,0-5.876,1.534-5.876,4.16a4.013,4.013,0,0,0,3.172,4.03l2.444.65c.546.13.936.39.936.858,0,.546-.7.858-1.534.858a9.142,9.142,0,0,1-4.68-1.248v3.51A11.842,11.842,0,0,0,32.864.312Zm14.56,0a9.5,9.5,0,0,0,3.666-.7V-4.446h-.208a5.1,5.1,0,0,1-2.808.858A3.149,3.149,0,0,1,44.642-6.63a3.149,3.149,0,0,1,3.432-3.042,5.056,5.056,0,0,1,2.782.832h.234v-4.03a9.5,9.5,0,0,0-3.666-.7c-4.16,0-7.358,2.782-7.358,6.942S43.264.312,47.424.312Zm12.688,0c4.108,0,7.41-2.808,7.41-6.942s-3.3-6.942-7.436-6.942C56-13.572,52.7-10.764,52.7-6.63S56,.312,60.112.312Zm0-4.056A2.774,2.774,0,0,1,57.278-6.63a2.774,2.774,0,0,1,2.834-2.886A2.774,2.774,0,0,1,62.946-6.63,2.774,2.774,0,0,1,60.112-3.744ZM78.65-13.572a5.25,5.25,0,0,0-4.108,2.834V-13.26H69.758V0h4.784V-8.086a6.092,6.092,0,0,1,2.964-.728,5.474,5.474,0,0,1,1.664.234v-4.94A2.682,2.682,0,0,0,78.65-13.572ZM90.714-11.96a5.737,5.737,0,0,0-4.056-1.612c-3.588,0-6.344,2.73-6.344,6.942S83.07.312,86.658.312A5.737,5.737,0,0,0,90.714-1.3V0h4.81V-19.5h-4.81ZM87.958-3.484A3,3,0,0,1,84.89-6.63a3,3,0,0,1,3.068-3.146,4.524,4.524,0,0,1,2.756,1.04v4.212A4.524,4.524,0,0,1,87.958-3.484Z" transform="translate(37.939 26.994)" fill="#fff"/>
    <path id="Subtraction_1" data-name="Subtraction 1" d="M6.789,18h0A9.177,9.177,0,0,1,1.55,16.315,6.207,6.207,0,0,1,0,14.743,28.117,28.117,0,0,1,3.205,2.25,11.364,11.364,0,0,1,9.436,0h.025l.223.257a15.432,15.432,0,0,0-5.852,2.8l.049-.026c.148-.074.6-.3,1.262-.593A19.978,19.978,0,0,1,12.857.887a19.167,19.167,0,0,1,8.913,2.177A15.041,15.041,0,0,0,16.228.343L16.539,0h.025a11.365,11.365,0,0,1,6.23,2.25A28.232,28.232,0,0,1,26,14.743a6.359,6.359,0,0,1-1.561,1.572A9.232,9.232,0,0,1,19.189,18c-.034-.038-.816-.939-1.47-1.736a7.076,7.076,0,0,0,4.029-2.55,12.95,12.95,0,0,1-2.56,1.264,16.123,16.123,0,0,1-6.073,1.158A16.735,16.735,0,0,1,5.3,14.228l-.1-.058c-.181-.1-.558-.308-.809-.477a7.012,7.012,0,0,0,3.9,2.528C7.62,17.027,6.8,17.99,6.789,18ZM16.971,8.11a2.25,2.25,0,0,0-2.165,2.322,2.17,2.17,0,1,0,4.329,0A2.249,2.249,0,0,0,16.971,8.11Zm-8.657,0a2.249,2.249,0,0,0-2.164,2.322,2.249,2.249,0,0,0,2.164,2.322,2.25,2.25,0,0,0,2.165-2.322A2.25,2.25,0,0,0,8.314,8.11Z" transform="translate(-0.061 6)" fill="#fff"/>
  </g>
</svg>
