<svg xmlns="http://www.w3.org/2000/svg" width="179.076" height="26" viewBox="0 0 179.076 26">
  <g id="Group_603" data-name="Group 603" transform="translate(0 -2)">
    <path id="Path_2084" data-name="Path 2084" d="M14.274-18.2H1.742V0H6.864V-6.708h5.72v-3.874H6.864v-3.2h7.41Zm10.712,6.24a5.737,5.737,0,0,0-4.056-1.612c-3.588,0-6.344,2.73-6.344,6.942S17.342.312,20.93.312A5.737,5.737,0,0,0,24.986-1.3V0H29.8V-13.26h-4.81ZM22.23-3.484A3,3,0,0,1,19.162-6.63,3,3,0,0,1,22.23-9.776a4.524,4.524,0,0,1,2.756,1.04v4.212A4.524,4.524,0,0,1,22.23-3.484ZM39.416.312a9.5,9.5,0,0,0,3.666-.7V-4.446h-.208a5.1,5.1,0,0,1-2.808.858A3.149,3.149,0,0,1,36.634-6.63a3.149,3.149,0,0,1,3.432-3.042,5.056,5.056,0,0,1,2.782.832h.234v-4.03a9.5,9.5,0,0,0-3.666-.7c-4.16,0-7.358,2.782-7.358,6.942S35.256.312,39.416.312ZM51.688-13.572c-4,0-6.942,2.548-6.942,6.838,0,3.978,2.6,7.046,7.254,7.046A12.836,12.836,0,0,0,57.226-.806V-4.082a12.665,12.665,0,0,1-4.55.936c-2.028,0-3.25-.884-3.64-2.522h9c.026-.234.052-.7.052-.962C58.11-10.79,55.874-13.572,51.688-13.572Zm-.052,3.406A2.154,2.154,0,0,1,53.95-8.138H49.062A2.517,2.517,0,0,1,51.636-10.166Zm17.55-3.406A5.737,5.737,0,0,0,65.13-11.96V-19.5H60.32V0h4.81V-1.3A5.737,5.737,0,0,0,69.186.312c3.588,0,6.344-2.73,6.344-6.942S72.774-13.572,69.186-13.572Zm-1.3,10.088a4.524,4.524,0,0,1-2.756-1.04V-8.736a4.524,4.524,0,0,1,2.756-1.04A2.969,2.969,0,0,1,70.954-6.63,2.969,2.969,0,0,1,67.886-3.484ZM84.474.312c4.108,0,7.41-2.808,7.41-6.942s-3.3-6.942-7.436-6.942c-4.082,0-7.384,2.808-7.384,6.942S80.366.312,84.474.312Zm0-4.056A2.774,2.774,0,0,1,81.64-6.63a2.774,2.774,0,0,1,2.834-2.886A2.774,2.774,0,0,1,87.308-6.63,2.774,2.774,0,0,1,84.474-3.744ZM100.8.312c4.108,0,7.41-2.808,7.41-6.942s-3.3-6.942-7.436-6.942c-4.082,0-7.384,2.808-7.384,6.942S96.694.312,100.8.312Zm0-4.056A2.774,2.774,0,0,1,97.968-6.63,2.774,2.774,0,0,1,100.8-9.516a2.774,2.774,0,0,1,2.834,2.886A2.774,2.774,0,0,1,100.8-3.744ZM117.13.312c4.108,0,7.41-2.808,7.41-6.942s-3.3-6.942-7.436-6.942c-4.082,0-7.384,2.808-7.384,6.942S113.022.312,117.13.312Zm0-4.056A2.774,2.774,0,0,1,114.3-6.63a2.774,2.774,0,0,1,2.834-2.886,2.774,2.774,0,0,1,2.834,2.886A2.774,2.774,0,0,1,117.13-3.744ZM136.708-6.89a7.962,7.962,0,0,0,3.614-6.344h-4.758c-.208,2.522-1.976,4.706-4,5.1V-19.5h-4.784V0h4.784V-6.682L135.85,0h5.226V-.494Z" transform="translate(38 26.5)" fill="#fff"/>
    <path id="Icon_awesome-facebook-square" data-name="Icon awesome-facebook-square" d="M23.214,2.25H2.786A2.786,2.786,0,0,0,0,5.036V25.464A2.786,2.786,0,0,0,2.786,28.25h7.965V19.411H7.095V15.25h3.656V12.079c0-3.607,2.147-5.6,5.436-5.6a22.15,22.15,0,0,1,3.222.281V10.3H17.595a2.08,2.08,0,0,0-2.346,2.248v2.7h3.992L18.6,19.411H15.249V28.25h7.965A2.786,2.786,0,0,0,26,25.464V5.036A2.786,2.786,0,0,0,23.214,2.25Z" transform="translate(0 -0.25)" fill="#fff"/>
  </g>
</svg>
