<svg xmlns="http://www.w3.org/2000/svg" xmlns:xlink="http://www.w3.org/1999/xlink" width="260" height="68" viewBox="0 0 260 68"><defs><style>.a{fill:url(#a);}.b{fill:#fff;}</style><linearGradient id="a" y1="0.5" x2="1" y2="0.5" gradientUnits="objectBoundingBox"><stop offset="0" stop-color="#ff416c"/><stop offset="1" stop-color="#ff4b2b"/></linearGradient></defs><g transform="translate(-50 -50)"><path class="a" d="M466.048,517.336a3.882,3.882,0,0,1-3.885,3.872H441.151l20.887,32.364a34.275,34.275,0,0,1-5.013,1.3L435.3,521.208H423.711L445.521,555a34.215,34.215,0,0,1-28.066-41.536h44.708A3.882,3.882,0,0,1,466.048,517.336ZM450.892,487a34.325,34.325,0,0,0-29.522,16.751h40.794a13.585,13.585,0,1,1,0,27.17h-3.157l11.741,18.193A34.189,34.189,0,0,0,450.892,487Z" transform="translate(-366.571 -437)"/><g transform="translate(133.742 66.217)"><path class="b" d="M506.087,532.826h-9.113l-.812-5.053c-.587-3.519-2.752-5.188-5.549-5.188H487.14v10.24h-8.888V501.247H493.5c7.535,0,12.316,4.692,12.316,10.918a9.164,9.164,0,0,1-4.646,7.8c1.759,1.173,3.339,3.384,3.924,6.948ZM491.741,516.4c3.247,0,5.008-1.579,5.008-3.969,0-2.482-1.76-4.016-5.008-4.016h-4.6V516.4Z" transform="translate(-478.252 -498.135)"/><path class="b" d="M501.165,503.387c0-2.661,2.165-4.421,4.826-4.421a4.464,4.464,0,0,1,4.783,4.421,4.817,4.817,0,0,1-9.609,0Zm.677,30.271V510.65h8.3v23.008Z" transform="translate(-469.901 -498.966)"/><path class="b" d="M527.387,525.647v6.631a27.44,27.44,0,0,1-5.549.632c-8.887,0-10.556-6.721-10.556-11.639V506.428l7.623-3.924h.677v6.9l7.083-.045v6.316h-7.083v5.729c0,3.112,1.67,4.646,4.331,4.646A15.839,15.839,0,0,0,527.387,525.647Z" transform="translate(-466.214 -497.677)"/><path class="b" d="M546.742,507.529V508.7l-9.7,15.248h9.383v6.586H525.088l-.812-1.172,10.059-15.249H525.4v-6.586Z" transform="translate(-461.478 -495.845)"/><path class="b" d="M542.295,519.177c0-7.218,5.549-12.044,12.767-12.044a16.487,16.487,0,0,1,6.361,1.217v6.993h-.407a8.775,8.775,0,0,0-4.827-1.444c-3.338,0-5.955,2.12-5.955,5.278s2.617,5.279,5.955,5.279a8.856,8.856,0,0,0,4.873-1.489h.362V530a16.488,16.488,0,0,1-6.361,1.219C547.844,531.223,542.295,526.4,542.295,519.177Z" transform="translate(-454.91 -495.989)"/><path class="b" d="M558.364,519.177c0-7.173,5.729-12.044,12.812-12.044,7.173,0,12.9,4.871,12.9,12.044s-5.729,12.046-12.857,12.046S558.364,526.35,558.364,519.177Zm17.775,0a4.918,4.918,0,1,0-4.918,5.008A4.813,4.813,0,0,0,576.139,519.177Z" transform="translate(-449.053 -495.989)"/><path class="b" d="M579.557,503.387c0-2.661,2.165-4.421,4.827-4.421a4.463,4.463,0,0,1,4.781,4.421,4.817,4.817,0,0,1-9.609,0Zm.677,30.271V510.65h8.3v23.008Z" transform="translate(-441.329 -498.966)"/><path class="b" d="M613.8,516.11v14.571h-8.3V517.914c0-2.436-1.352-3.834-3.337-3.834a5.726,5.726,0,0,0-3.926,1.76v14.841h-8.3V507.673h8.3v2.617a9.726,9.726,0,0,1,7.083-3.157C609.969,507.133,613.8,509.929,613.8,516.11Z" transform="translate(-437.545 -495.989)"/></g></g></svg>