<svg xmlns="http://www.w3.org/2000/svg" width="126.192" height="26.003" viewBox="0 0 126.192 26.003">
  <g id="Group_597" data-name="Group 597" transform="translate(0 -2)">
    <path id="Path_2078" data-name="Path 2078" d="M10.426-6.812h3.432v2.158a6.766,6.766,0,0,1-3.042.6A4.608,4.608,0,0,1,6.11-8.944a5.032,5.032,0,0,1,5.382-5.148,10.111,10.111,0,0,1,5.33,1.482h.338v-4.316a11.3,11.3,0,0,0-6.136-1.586c-5.538,0-10.14,3.718-10.14,9.438C.884-3.406,5.226.312,10.53.312a14.9,14.9,0,0,0,7.826-2.288v-8.268h-7.93Zm12.9-8.06a2.607,2.607,0,0,0,2.756-2.574,2.572,2.572,0,0,0-2.756-2.548,2.6,2.6,0,0,0-2.782,2.548A2.615,2.615,0,0,0,23.322-14.872ZM25.714,0V-13.26H20.93V0ZM35.776-3.64c-1.534,0-2.5-.884-2.5-2.678v-3.3h4.082v-3.64l-4.082.026v-3.978h-.39L28.5-14.95V-6.4c0,2.834.962,6.708,6.084,6.708a15.845,15.845,0,0,0,3.2-.364V-3.874A9.116,9.116,0,0,1,35.776-3.64Zm12.9-9.932a5.606,5.606,0,0,0-4.082,1.82V-19.5H39.806V0H44.59V-8.554a3.3,3.3,0,0,1,2.262-1.014c1.144,0,1.924.806,1.924,2.21V0H53.56V-8.4C53.56-11.96,51.35-13.572,48.672-13.572ZM65.208-4.706a3.291,3.291,0,0,1-2.236,1.014c-1.17,0-1.924-.806-1.924-2.21V-13.26H56.264v8.4c0,3.562,2.21,5.174,4.888,5.174a5.57,5.57,0,0,0,4.056-1.794V0h4.81V-13.26h-4.81Zm16.64-8.866a5.737,5.737,0,0,0-4.056,1.612V-19.5h-4.81V0h4.81V-1.3A5.737,5.737,0,0,0,81.848.312c3.588,0,6.344-2.73,6.344-6.942S85.436-13.572,81.848-13.572Zm-1.3,10.088a4.524,4.524,0,0,1-2.756-1.04V-8.736a4.524,4.524,0,0,1,2.756-1.04A2.969,2.969,0,0,1,83.616-6.63,2.969,2.969,0,0,1,80.548-3.484Z" transform="translate(38 26.994)" fill="#fff"/>
    <path id="Icon_awesome-github" data-name="Icon awesome-github" d="M8.7,21.5c0,.108-.121.194-.273.194-.173.016-.294-.07-.294-.194,0-.108.121-.194.273-.194C8.56,21.29,8.7,21.376,8.7,21.5Zm-1.63-.242c-.037.108.068.231.225.263a.243.243,0,0,0,.325-.108c.031-.108-.068-.231-.225-.28A.266.266,0,0,0,7.066,21.258Zm2.317-.091c-.152.038-.257.14-.241.263.016.108.152.177.309.14s.257-.14.241-.247S9.535,21.15,9.383,21.167ZM12.832.563A12.733,12.733,0,0,0,0,13.682,13.46,13.46,0,0,0,8.885,26.543c.671.124.907-.3.907-.651,0-.333-.016-2.172-.016-3.3,0,0-3.669.807-4.44-1.6,0,0-.6-1.565-1.457-1.968,0,0-1.2-.844.084-.828A2.756,2.756,0,0,1,5.986,19.58,2.732,2.732,0,0,0,9.808,20.7a3.018,3.018,0,0,1,.839-1.812c-2.93-.333-5.887-.769-5.887-5.941A4.129,4.129,0,0,1,6,9.784a5.2,5.2,0,0,1,.136-3.651c1.1-.349,3.617,1.452,3.617,1.452a12.084,12.084,0,0,1,6.584,0s2.521-1.807,3.617-1.452a5.2,5.2,0,0,1,.136,3.651,4.229,4.229,0,0,1,1.352,3.167c0,5.189-3.087,5.6-6.018,5.941a3.224,3.224,0,0,1,.891,2.495c0,1.812-.016,4.054-.016,4.5,0,.349.241.774.907.651A13.339,13.339,0,0,0,26,13.682,13.011,13.011,0,0,0,12.832.563ZM5.1,19.107c-.068.054-.052.177.037.28.084.086.2.124.273.054.068-.054.052-.177-.037-.28C5.284,19.075,5.163,19.037,5.1,19.107Zm-.566-.436c-.037.07.016.156.121.21a.154.154,0,0,0,.225-.038c.037-.07-.016-.156-.121-.21C4.65,18.6,4.566,18.618,4.529,18.672Zm1.7,1.914c-.084.07-.052.231.068.333.121.124.273.14.341.054.068-.07.037-.231-.068-.333C6.453,20.516,6.3,20.5,6.227,20.586Zm-.6-.79c-.084.054-.084.194,0,.317s.225.177.294.124a.25.25,0,0,0,0-.333C5.85,19.779,5.714,19.726,5.63,19.8Z" transform="translate(0 1.438)" fill="#fff"/>
  </g>
</svg>
