<svg xmlns="http://www.w3.org/2000/svg" width="173.602" height="26.608" viewBox="0 0 173.602 26.608">
  <g id="Group_602" data-name="Group 602" transform="translate(-0.352 -2)">
    <path id="Path_2083" data-name="Path 2083" d="M6.864,0V-18.2H1.742V0ZM18.746-13.572a5.606,5.606,0,0,0-4.082,1.82V-13.26H9.88V0h4.784V-8.554a3.3,3.3,0,0,1,2.262-1.014c1.144,0,1.924.806,1.924,2.21V0h4.784V-8.4C23.634-11.96,21.424-13.572,18.746-13.572ZM31.252.312C34.606.312,37-1.014,37-3.77c0-1.508-.624-3.146-3.276-3.978L31.3-8.5c-.546-.156-.884-.39-.884-.832,0-.6.624-.858,1.482-.858a10.145,10.145,0,0,1,4.186.884V-12.74a11.108,11.108,0,0,0-4.342-.832c-3.406,0-5.876,1.534-5.876,4.16a4.013,4.013,0,0,0,3.172,4.03l2.444.65c.546.13.936.39.936.858,0,.546-.7.858-1.534.858a9.142,9.142,0,0,1-4.68-1.248v3.51A11.842,11.842,0,0,0,31.252.312ZM46.228-3.64c-1.534,0-2.5-.884-2.5-2.678v-3.3h4.082v-3.64l-4.082.026v-3.978h-.39L38.948-14.95V-6.4c0,2.834.962,6.708,6.084,6.708a15.845,15.845,0,0,0,3.2-.364V-3.874A9.116,9.116,0,0,1,46.228-3.64ZM59.8-11.96a5.737,5.737,0,0,0-4.056-1.612c-3.588,0-6.344,2.73-6.344,6.942S52.156.312,55.744.312A5.737,5.737,0,0,0,59.8-1.3V0h4.81V-13.26H59.8ZM57.044-3.484A3,3,0,0,1,53.976-6.63a3,3,0,0,1,3.068-3.146A4.524,4.524,0,0,1,59.8-8.736v4.212A4.524,4.524,0,0,1,57.044-3.484Zm20.1-8.632a5.852,5.852,0,0,0-3.9-1.456c-3.588,0-6.344,2.73-6.344,6.942S69.654.1,73.242.1A6.046,6.046,0,0,0,77.09-1.144C76.83.728,75.322,1.9,72.956,1.9A11.84,11.84,0,0,1,68.068.91V4.524a19.582,19.582,0,0,0,5.538.884c4.862,0,8.112-2.99,8.112-7.826V-13.26H77.142ZM71.474-6.63a3,3,0,0,1,3.068-3.146,4.5,4.5,0,0,1,2.6.91v4.472a4.5,4.5,0,0,1-2.6.91A3,3,0,0,1,71.474-6.63Zm22.074-6.942a5.25,5.25,0,0,0-4.108,2.834V-13.26H84.656V0H89.44V-8.086A6.092,6.092,0,0,1,92.4-8.814a5.474,5.474,0,0,1,1.664.234v-4.94A2.682,2.682,0,0,0,93.548-13.572Zm12.064,1.612a5.737,5.737,0,0,0-4.056-1.612c-3.588,0-6.344,2.73-6.344,6.942S97.968.312,101.556.312A5.737,5.737,0,0,0,105.612-1.3V0h4.81V-13.26h-4.81Zm-2.756,8.476A3,3,0,0,1,99.788-6.63a3,3,0,0,1,3.068-3.146,4.524,4.524,0,0,1,2.756,1.04v4.212A4.524,4.524,0,0,1,102.856-3.484Zm27.092-10.088a5.089,5.089,0,0,0-4.134,2.392,4.227,4.227,0,0,0-4.082-2.392A4.626,4.626,0,0,0,118.17-11.8V-13.26h-4.784V0h4.784V-8.632a2.373,2.373,0,0,1,1.794-.936c.988,0,1.638.806,1.638,2V0h4.784V-8.632a2.294,2.294,0,0,1,1.794-.936c.988,0,1.638.806,1.638,2V0H134.6V-8.4C134.6-11.908,132.574-13.572,129.948-13.572Z" transform="translate(39.352 23.2)" fill="#fff"/>
    <path id="Union_2" data-name="Union 2" d="M6.5,26A6.5,6.5,0,0,1,0,19.5V6.5A6.5,6.5,0,0,1,6.5,0h13A6.5,6.5,0,0,1,26,6.5v13A6.5,6.5,0,0,1,19.5,26ZM2,6.5v13A4.5,4.5,0,0,0,6.5,24h13A4.5,4.5,0,0,0,24,19.5V6.5A4.5,4.5,0,0,0,19.5,2H6.5A4.5,4.5,0,0,0,2,6.5ZM8.807,17.192a6,6,0,1,1,4.245,1.758A6,6,0,0,1,8.807,17.192Zm.67-6.04a4,4,0,1,0,4.16-2.159,4.116,4.116,0,0,0-.589-.043A3.974,3.974,0,0,0,9.478,11.152ZM19,6a1,1,0,1,1,1,1A1,1,0,0,1,19,6Z" transform="translate(0.352 2)" fill="#fff"/>
  </g>
</svg>
