<svg xmlns="http://www.w3.org/2000/svg" width="124.998" height="26" viewBox="0 0 124.998 26">
  <g id="Group_600" data-name="Group 600" transform="translate(0 -2)">
    <path id="Path_2081" data-name="Path 2081" d="M17.212-3.406a5.7,5.7,0,0,0-2.262-4,5.283,5.283,0,0,0,2.678-4.5c0-3.588-2.756-6.292-7.1-6.292H1.742V0H6.864V-5.9h2a3.146,3.146,0,0,1,3.2,2.99L12.532,0h5.252ZM6.864-9.464v-4.6H9.516c1.872,0,2.886.884,2.886,2.314,0,1.378-1.014,2.288-2.886,2.288Zm19.188-4.108c-4,0-6.942,2.548-6.942,6.838,0,3.978,2.6,7.046,7.254,7.046A12.836,12.836,0,0,0,31.59-.806V-4.082a12.665,12.665,0,0,1-4.55.936c-2.028,0-3.25-.884-3.64-2.522h9c.026-.234.052-.7.052-.962C32.474-10.79,30.238-13.572,26.052-13.572ZM26-10.166a2.154,2.154,0,0,1,2.314,2.028H23.426A2.517,2.517,0,0,1,26-10.166ZM44.382-11.96a5.737,5.737,0,0,0-4.056-1.612c-3.588,0-6.344,2.73-6.344,6.942S36.738.312,40.326.312A5.737,5.737,0,0,0,44.382-1.3V0h4.81V-19.5h-4.81ZM41.626-3.484A3,3,0,0,1,38.558-6.63a3,3,0,0,1,3.068-3.146,4.524,4.524,0,0,1,2.756,1.04v4.212A4.524,4.524,0,0,1,41.626-3.484ZM61.854-11.96A5.737,5.737,0,0,0,57.8-13.572c-3.588,0-6.344,2.73-6.344,6.942S54.21.312,57.8.312A5.737,5.737,0,0,0,61.854-1.3V0h4.81V-19.5h-4.81ZM59.1-3.484A3,3,0,0,1,56.03-6.63,3,3,0,0,1,59.1-9.776a4.524,4.524,0,0,1,2.756,1.04v4.212A4.524,4.524,0,0,1,59.1-3.484ZM72.02-14.872a2.607,2.607,0,0,0,2.756-2.574,2.572,2.572,0,0,0-2.756-2.548,2.6,2.6,0,0,0-2.782,2.548A2.615,2.615,0,0,0,72.02-14.872ZM74.412,0V-13.26H69.628V0ZM84.474-3.64c-1.534,0-2.5-.884-2.5-2.678v-3.3H86.06v-3.64l-4.082.026v-3.978h-.39L77.194-14.95V-6.4c0,2.834.962,6.708,6.084,6.708a15.845,15.845,0,0,0,3.2-.364V-3.874A9.116,9.116,0,0,1,84.474-3.64Z" transform="translate(38.522 26.994)" fill="#fff"/>
    <path id="Icon_awesome-reddit-alien" data-name="Icon awesome-reddit-alien" d="M24.419,12.2a2.841,2.841,0,0,0-2.077.923,13.545,13.545,0,0,0-7.513-2.454l1.518-7.241,4.833,1.149A2.218,2.218,0,0,0,23.329,6.85a2.252,2.252,0,0,0,2.176-2.3,2.248,2.248,0,0,0-2.176-2.3,2.2,2.2,0,0,0-1.934,1.277L16.057,2.266a.511.511,0,0,0-.6.412l-1.666,7.984a13.72,13.72,0,0,0-7.469,2.483,2.837,2.837,0,0,0-2.1-.946C1.168,12.2.17,16.528,2.96,18.008a6.862,6.862,0,0,0-.142,1.433c0,4.862,5.173,8.8,11.524,8.8,6.379,0,11.552-3.94,11.552-8.8a5.844,5.844,0,0,0-.17-1.456C28.458,16.5,27.45,12.2,24.419,12.2ZM7.382,18.315a2.233,2.233,0,0,1,2.176-2.3,2.294,2.294,0,0,1,0,4.578,2.222,2.222,0,0,1-2.176-2.274ZM19.126,23.74c-1.995,2.112-7.623,2.112-9.617,0a.562.562,0,0,1,0-.795.506.506,0,0,1,.723,0c1.523,1.654,6.576,1.683,8.165,0a.506.506,0,0,1,.723,0A.558.558,0,0,1,19.126,23.74ZM19.082,20.6a2.292,2.292,0,1,1,2.176-2.274A2.218,2.218,0,0,1,19.082,20.6Z" transform="translate(-1.319 -0.243)" fill="#fff"/>
  </g>
</svg>
