<svg xmlns="http://www.w3.org/2000/svg" width="1485.72" height="486" viewBox="0 0 1485.72 486">
  <g id="RoadMap" transform="translate(-216 -6461)">
    <path id="Path_2085" data-name="Path 2085" d="M9.528-6.768h5.544v3.912A9.207,9.207,0,0,1,10.128-1.68,6.609,6.609,0,0,1,3.384-8.328a6.644,6.644,0,0,1,6.7-6.792,9.174,9.174,0,0,1,6.048,2.352H16.3v-2.256a10.016,10.016,0,0,0-6.216-2.064,8.619,8.619,0,0,0-8.856,8.76A8.553,8.553,0,0,0,10.1.288,13.172,13.172,0,0,0,17.04-1.656v-7.08H9.528ZM26.088.288a6.353,6.353,0,0,0,6.48-6.432,6.314,6.314,0,0,0-6.48-6.384,6.328,6.328,0,0,0-6.48,6.384A6.368,6.368,0,0,0,26.088.288Zm0-1.776a4.577,4.577,0,0,1-4.464-4.656,4.55,4.55,0,0,1,4.464-4.608,4.539,4.539,0,0,1,4.488,4.608A4.566,4.566,0,0,1,26.088-1.488Zm13.656-2.28L35.76-12.24H33.72v.168L39.648,0h.192l5.9-12.072v-.168H43.7Zm18.648-2.9c0-3.336-1.992-5.856-5.52-5.856-3.36,0-5.952,2.352-5.952,6.312,0,3.72,2.3,6.5,6.312,6.5A10.034,10.034,0,0,0,57.7-.744v-1.8a11.392,11.392,0,0,1-4.32,1.056,4.335,4.335,0,0,1-4.44-4.536h9.432A5.033,5.033,0,0,0,58.392-6.672Zm-5.472-4.08a3.24,3.24,0,0,1,3.432,3.144H49.08A3.792,3.792,0,0,1,52.92-10.752Zm14.736-1.776A5.89,5.89,0,0,0,63.5-10.344v-1.9H61.536V0H63.5V-8.9a5.287,5.287,0,0,1,3.624-1.488,3.6,3.6,0,0,1,.888.1V-12.5A1.589,1.589,0,0,0,67.656-12.528Zm9.144,0a5.26,5.26,0,0,0-4.152,1.992v-1.7H70.68V0h1.968V-8.424a4.463,4.463,0,0,1,3.72-2.328,2.789,2.789,0,0,1,2.952,3.1V0h1.944V-7.656C81.264-10.776,79.416-12.528,76.8-12.528Zm17.856,1.56a6.35,6.35,0,0,0-4.224-1.56,6.064,6.064,0,0,0-6.1,6.408,6.064,6.064,0,0,0,6.1,6.408,6.35,6.35,0,0,0,4.224-1.56V0h1.968V-12.24H94.656ZM90.7-1.488A4.37,4.37,0,0,1,86.352-6.12,4.37,4.37,0,0,1,90.7-10.752a5.655,5.655,0,0,1,3.96,1.728v5.808A5.788,5.788,0,0,1,90.7-1.488Zm16.272-11.04a5.26,5.26,0,0,0-4.152,1.992v-1.7h-1.968V0h1.968V-8.424a4.463,4.463,0,0,1,3.72-2.328,2.789,2.789,0,0,1,2.952,3.1V0h1.944V-7.656C111.432-10.776,109.584-12.528,106.968-12.528ZM121.176.288a6.7,6.7,0,0,0,3.312-.816V-2.52h-.12a5.2,5.2,0,0,1-3.144,1.032A4.553,4.553,0,0,1,116.5-6.12a4.553,4.553,0,0,1,4.728-4.632,5.2,5.2,0,0,1,3.144,1.032h.12v-1.992a6.7,6.7,0,0,0-3.312-.816,6.358,6.358,0,0,0-6.7,6.408A6.358,6.358,0,0,0,121.176.288Zm16.848-6.96c0-3.336-1.992-5.856-5.52-5.856-3.36,0-5.952,2.352-5.952,6.312,0,3.72,2.3,6.5,6.312,6.5a10.034,10.034,0,0,0,4.464-1.032v-1.8a11.392,11.392,0,0,1-4.32,1.056,4.335,4.335,0,0,1-4.44-4.536H138A5.033,5.033,0,0,0,138.024-6.672Zm-5.472-4.08a3.24,3.24,0,0,1,3.432,3.144h-7.272A3.792,3.792,0,0,1,132.552-10.752Zm-118.368,42L2.976,19.2H2.4V36H4.512V24.024L15.744,36H16.3V19.2H14.184Zm16.848-1.92c0-3.336-1.992-5.856-5.52-5.856-3.36,0-5.952,2.352-5.952,6.312,0,3.72,2.3,6.5,6.312,6.5a10.034,10.034,0,0,0,4.464-1.032v-1.8a11.392,11.392,0,0,1-4.32,1.056,4.335,4.335,0,0,1-4.44-4.536h9.432A5.033,5.033,0,0,0,31.032,29.328Zm-5.472-4.08a3.24,3.24,0,0,1,3.432,3.144H21.72A3.792,3.792,0,0,1,25.56,25.248Zm21.1,6.816-4.2-7.656h-.624l-4.056,7.728-3.36-8.376H32.3v.168L37.392,36h.288l4.488-8.328L46.728,36h.264l5.016-12.072V23.76H49.9ZM60.24,19.2V36h2.112V29.952H65.04c4.008,0,6.672-2.112,6.672-5.376S69.048,19.2,65.04,19.2Zm2.112,8.784V21.168H65.04c2.712,0,4.536,1.176,4.536,3.408s-1.824,3.408-4.536,3.408Zm21.336-2.952a6.35,6.35,0,0,0-4.224-1.56,6.064,6.064,0,0,0-6.1,6.408,6.064,6.064,0,0,0,6.1,6.408,6.35,6.35,0,0,0,4.224-1.56V36h1.968V23.76H83.688Zm-3.96,9.48a4.37,4.37,0,0,1-4.344-4.632,4.37,4.37,0,0,1,4.344-4.632,5.655,5.655,0,0,1,3.96,1.728v5.808A5.788,5.788,0,0,1,79.728,34.512ZM96,23.472a5.89,5.89,0,0,0-4.152,2.184v-1.9H89.88V36h1.968V27.1a5.287,5.287,0,0,1,3.624-1.488,3.6,3.6,0,0,1,.888.1V23.5A1.589,1.589,0,0,0,96,23.472Zm7.7,11.04c-2.208,0-2.9-1.68-2.9-3.456V25.44h4.488V23.76H100.8V20.3h-.288l-1.68,1.416V31.1c0,2.952,1.44,5.184,4.584,5.184a7.978,7.978,0,0,0,2.16-.288V34.248A7.5,7.5,0,0,1,103.7,34.512Zm10.56-11.04a5.26,5.26,0,0,0-4.152,1.992v-1.7h-1.968V36h1.968V27.576a4.463,4.463,0,0,1,3.72-2.328,2.789,2.789,0,0,1,2.952,3.1V36h1.944V28.344C118.728,25.224,116.88,23.472,114.264,23.472ZM133.3,29.328c0-3.336-1.992-5.856-5.52-5.856-3.36,0-5.952,2.352-5.952,6.312,0,3.72,2.3,6.5,6.312,6.5a10.033,10.033,0,0,0,4.464-1.032v-1.8a11.392,11.392,0,0,1-4.32,1.056,4.335,4.335,0,0,1-4.44-4.536h9.432A5.036,5.036,0,0,0,133.3,29.328Zm-5.472-4.08a3.24,3.24,0,0,1,3.432,3.144h-7.272A3.792,3.792,0,0,1,127.824,25.248Zm14.736-1.776a5.89,5.89,0,0,0-4.152,2.184v-1.9H136.44V36h1.968V27.1a5.287,5.287,0,0,1,3.624-1.488,3.6,3.6,0,0,1,.888.1V23.5A1.589,1.589,0,0,0,142.56,23.472Zm5.976,12.816c2.88,0,5.016-1.224,5.016-3.552,0-1.776-.792-3.024-3.216-3.624l-1.9-.552c-1.152-.312-1.728-.816-1.728-1.608,0-1.2,1.224-1.7,2.448-1.7a7.442,7.442,0,0,1,3.528.864V24.288a6.915,6.915,0,0,0-3.408-.816c-2.472,0-4.584,1.272-4.584,3.432,0,1.824.888,2.976,3,3.552l2.136.6c.984.264,1.728.72,1.728,1.68,0,1.128-1.32,1.8-2.88,1.8a8.759,8.759,0,0,1-3.888-1.008v1.824A7.932,7.932,0,0,0,148.536,36.288Zm14.208-12.816a5.26,5.26,0,0,0-4.152,1.992V18h-1.968V36h1.968V27.576a4.463,4.463,0,0,1,3.72-2.328,2.789,2.789,0,0,1,2.952,3.1V36h1.944V28.344C167.208,25.224,165.36,23.472,162.744,23.472Zm9.5-2.568a1.383,1.383,0,0,0,1.368-1.368,1.358,1.358,0,0,0-1.368-1.392,1.38,1.38,0,0,0,0,2.76Zm.984,15.1V23.76h-1.968V36Zm10.632-12.528a6.012,6.012,0,0,0-4.44,1.8V23.76h-1.968V40.68h1.968V34.488A6.18,6.18,0,0,0,189.96,29.88,6.064,6.064,0,0,0,183.864,23.472Zm-.24,11.04a5.783,5.783,0,0,1-4.2-1.992v-5.3a5.707,5.707,0,0,1,4.176-1.968,4.343,4.343,0,0,1,4.344,4.632A4.352,4.352,0,0,1,183.624,34.512Zm12.528,1.776c2.88,0,5.016-1.224,5.016-3.552,0-1.776-.792-3.024-3.216-3.624l-1.9-.552c-1.152-.312-1.728-.816-1.728-1.608,0-1.2,1.224-1.7,2.448-1.7a7.442,7.442,0,0,1,3.528.864V24.288a6.915,6.915,0,0,0-3.408-.816c-2.472,0-4.584,1.272-4.584,3.432,0,1.824.888,2.976,3,3.552l2.136.6c.984.264,1.728.72,1.728,1.68,0,1.128-1.32,1.8-2.88,1.8a8.759,8.759,0,0,1-3.888-1.008v1.824A7.932,7.932,0,0,0,196.152,36.288ZM12.624,62.784H4.512V55.2H2.4V72H4.512V64.728h8.112V72h2.112V55.2H12.624Zm7.464-5.88a1.383,1.383,0,0,0,1.368-1.368,1.358,1.358,0,0,0-1.368-1.392,1.38,1.38,0,0,0,0,2.76ZM21.072,72V59.76H19.1V72ZM31.416,59.472a5.89,5.89,0,0,0-4.152,2.184v-1.9H25.3V72h1.968V63.1a5.287,5.287,0,0,1,3.624-1.488,3.6,3.6,0,0,1,.888.1V59.5A1.589,1.589,0,0,0,31.416,59.472Zm13.152,5.856c0-3.336-1.992-5.856-5.52-5.856-3.36,0-5.952,2.352-5.952,6.312,0,3.72,2.3,6.5,6.312,6.5a10.034,10.034,0,0,0,4.464-1.032v-1.8a11.392,11.392,0,0,1-4.32,1.056,4.335,4.335,0,0,1-4.44-4.536h9.432A5.033,5.033,0,0,0,44.568,65.328ZM39.1,61.248a3.24,3.24,0,0,1,3.432,3.144H35.256A3.792,3.792,0,0,1,39.1,61.248ZM69.168,55.2h-.576L62.376,67.224,56.136,55.2H55.56L52.608,72H54.72l2.04-11.352,5.352,10.584h.5l5.352-10.56L70.032,72h2.112Zm15.408,5.832a6.35,6.35,0,0,0-4.224-1.56,6.064,6.064,0,0,0-6.1,6.408,6.064,6.064,0,0,0,6.1,6.408,6.35,6.35,0,0,0,4.224-1.56V72h1.968V59.76H84.576Zm-3.96,9.48a4.642,4.642,0,0,1,0-9.264,5.655,5.655,0,0,1,3.96,1.728v5.808A5.788,5.788,0,0,1,80.616,70.512Zm16.272-11.04a5.89,5.89,0,0,0-4.152,2.184v-1.9H90.768V72h1.968V63.1a5.287,5.287,0,0,1,3.624-1.488,3.6,3.6,0,0,1,.888.1V59.5A1.589,1.589,0,0,0,96.888,59.472Zm7.824,6.144a7.589,7.589,0,0,0,4.272-5.856h-2.04a5.494,5.494,0,0,1-5.064,4.776V54H99.912V72h1.968V65.328L107.568,72h2.3v-.288Zm17.688-.288c0-3.336-1.992-5.856-5.52-5.856-3.36,0-5.952,2.352-5.952,6.312,0,3.72,2.3,6.5,6.312,6.5a10.034,10.034,0,0,0,4.464-1.032v-1.8a11.392,11.392,0,0,1-4.32,1.056,4.335,4.335,0,0,1-4.44-4.536h9.432A5.033,5.033,0,0,0,122.4,65.328Zm-5.472-4.08a3.24,3.24,0,0,1,3.432,3.144h-7.272A3.792,3.792,0,0,1,116.928,61.248Zm13.3,9.264c-2.208,0-2.9-1.68-2.9-3.456V61.44h4.488V59.76H127.32V56.3h-.288l-1.68,1.416V67.1c0,2.952,1.44,5.184,4.584,5.184A7.978,7.978,0,0,0,132.1,72V70.248A7.5,7.5,0,0,1,130.224,70.512ZM135.648,56.9a1.383,1.383,0,0,0,1.368-1.368,1.358,1.358,0,0,0-1.368-1.392,1.38,1.38,0,0,0,0,2.76Zm.984,15.1V59.76h-1.968V72Zm10.344-12.528a5.26,5.26,0,0,0-4.152,1.992v-1.7h-1.968V72h1.968V63.576a4.463,4.463,0,0,1,3.72-2.328,2.789,2.789,0,0,1,2.952,3.1V72h1.944V64.344C151.44,61.224,149.592,59.472,146.976,59.472ZM165.12,61.32a6.408,6.408,0,1,0,0,9.12v.072c0,3.072-1.824,4.68-4.512,4.68a11.371,11.371,0,0,1-4.872-1.152v1.776a11.044,11.044,0,0,0,4.872,1.152,6.085,6.085,0,0,0,6.48-6.336V59.76H165.12ZM160.9,70.512a4.642,4.642,0,0,1,0-9.264,5.767,5.767,0,0,1,4.224,2.016V68.5A5.855,5.855,0,0,1,160.9,70.512ZM192.744,55.2h-.576l-6.216,12.024L179.712,55.2h-.576L176.184,72H178.3l2.04-11.352,5.352,10.584h.5l5.352-10.56L193.608,72h2.112Zm15.408,5.832a6.35,6.35,0,0,0-4.224-1.56,6.064,6.064,0,0,0-6.1,6.408,6.064,6.064,0,0,0,6.1,6.408,6.35,6.35,0,0,0,4.224-1.56V72h1.968V59.76h-1.968Zm-3.96,9.48a4.642,4.642,0,0,1,0-9.264,5.655,5.655,0,0,1,3.96,1.728v5.808A5.788,5.788,0,0,1,204.192,70.512Zm16.272-11.04a5.26,5.26,0,0,0-4.152,1.992v-1.7h-1.968V72h1.968V63.576a4.463,4.463,0,0,1,3.72-2.328,2.789,2.789,0,0,1,2.952,3.1V72h1.944V64.344C224.928,61.224,223.08,59.472,220.464,59.472Zm17.856,1.56a6.35,6.35,0,0,0-4.224-1.56A6.064,6.064,0,0,0,228,65.88a6.064,6.064,0,0,0,6.1,6.408,6.35,6.35,0,0,0,4.224-1.56V72h1.968V59.76H238.32Zm-3.96,9.48a4.642,4.642,0,0,1,0-9.264,5.655,5.655,0,0,1,3.96,1.728v5.808A5.788,5.788,0,0,1,234.36,70.512Zm19.776-9.192a6.408,6.408,0,1,0,0,9.12v.072c0,3.072-1.824,4.68-4.512,4.68a11.371,11.371,0,0,1-4.872-1.152v1.776a11.044,11.044,0,0,0,4.872,1.152,6.085,6.085,0,0,0,6.48-6.336V59.76h-1.968Zm-4.224,9.192a4.642,4.642,0,0,1,0-9.264,5.767,5.767,0,0,1,4.224,2.016V68.5A5.855,5.855,0,0,1,249.912,70.512Zm20.9-5.184c0-3.336-1.992-5.856-5.52-5.856-3.36,0-5.952,2.352-5.952,6.312,0,3.72,2.3,6.5,6.312,6.5a10.034,10.034,0,0,0,4.464-1.032v-1.8a11.392,11.392,0,0,1-4.32,1.056,4.335,4.335,0,0,1-4.44-4.536h9.432A5.036,5.036,0,0,0,270.816,65.328Zm-5.472-4.08a3.24,3.24,0,0,1,3.432,3.144H261.5A3.792,3.792,0,0,1,265.344,61.248Zm14.736-1.776a5.89,5.89,0,0,0-4.152,2.184v-1.9H273.96V72h1.968V63.1a5.287,5.287,0,0,1,3.624-1.488,3.6,3.6,0,0,1,.888.1V59.5A1.589,1.589,0,0,0,280.08,59.472Zm-265.9,43.776L2.976,91.2H2.4V108H4.512V96.024L15.744,108H16.3V91.2H14.184Zm16.848-1.92c0-3.336-1.992-5.856-5.52-5.856-3.36,0-5.952,2.352-5.952,6.312,0,3.72,2.3,6.5,6.312,6.5a10.034,10.034,0,0,0,4.464-1.032v-1.8a11.392,11.392,0,0,1-4.32,1.056,4.335,4.335,0,0,1-4.44-4.536h9.432A5.033,5.033,0,0,0,31.032,101.328Zm-5.472-4.08a3.24,3.24,0,0,1,3.432,3.144H21.72A3.792,3.792,0,0,1,25.56,97.248Zm21.1,6.816-4.2-7.656h-.624l-4.056,7.728-3.36-8.376H32.3v.168L37.392,108h.288l4.488-8.328L46.728,108h.264l5.016-12.072V95.76H49.9Zm18.528-.288L59.448,91.2H57.24v.192L64.944,108h.408L73.1,91.392V91.2H70.872Zm17.4-2.448c1.824-1.992,2.808-3.624,2.808-5.52,0-2.832-2.16-4.9-5.424-4.9a8.206,8.206,0,0,0-5.184,1.872v2.208a8.046,8.046,0,0,1,5.16-2.232,3.116,3.116,0,0,1,3.432,3.048c0,1.344-.84,2.616-2.28,4.32l-6.936,7.44.312.432h11.4v-1.848H78.048ZM97.464,91.2H95.352V108h9.528v-1.968H97.464ZM116.4,97.032a6.35,6.35,0,0,0-4.224-1.56,6.416,6.416,0,0,0,0,12.816,6.35,6.35,0,0,0,4.224-1.56V108h1.968V95.76H116.4Zm-3.96,9.48a4.642,4.642,0,0,1,0-9.264,5.655,5.655,0,0,1,3.96,1.728v5.808A5.788,5.788,0,0,1,112.44,106.512Zm18.576-2.3a4.484,4.484,0,0,1-3.7,2.3,2.778,2.778,0,0,1-2.952-3.1V95.76H122.4v7.656c0,3.12,1.848,4.872,4.464,4.872a5.314,5.314,0,0,0,4.152-1.968V108h1.968V95.76h-1.968Zm12.312-8.736a5.26,5.26,0,0,0-4.152,1.992v-1.7h-1.968V108h1.968V99.576a4.463,4.463,0,0,1,3.72-2.328,2.789,2.789,0,0,1,2.952,3.1V108h1.944v-7.656C147.792,97.224,145.944,95.472,143.328,95.472Zm14.208,12.816a6.7,6.7,0,0,0,3.312-.816V105.48h-.12a5.2,5.2,0,0,1-3.144,1.032,4.633,4.633,0,1,1,0-9.264,5.2,5.2,0,0,1,3.144,1.032h.12V96.288a6.7,6.7,0,0,0-3.312-.816,6.414,6.414,0,1,0,0,12.816Zm12.7-12.816a5.26,5.26,0,0,0-4.152,1.992V90h-1.968v18h1.968V99.576a4.463,4.463,0,0,1,3.72-2.328,2.789,2.789,0,0,1,2.952,3.1V108H174.7v-7.656C174.7,97.224,172.848,95.472,170.232,95.472Zm14.928,0a6.012,6.012,0,0,0-4.44,1.8V95.76h-1.968v16.92h1.968v-6.192a6.318,6.318,0,1,0,4.44-11.016Zm-.24,11.04a5.783,5.783,0,0,1-4.2-1.992v-5.3a5.707,5.707,0,0,1,4.176-1.968,4.642,4.642,0,0,1,.024,9.264Zm15.048,1.776a6.408,6.408,0,1,0-6.48-6.432A6.353,6.353,0,0,0,199.968,108.288Zm0-1.776a4.634,4.634,0,1,1,4.488-4.656A4.577,4.577,0,0,1,199.968,106.512Zm15.192,1.776a6.408,6.408,0,1,0-6.48-6.432A6.353,6.353,0,0,0,215.16,108.288Zm0-1.776a4.634,4.634,0,1,1,4.488-4.656A4.577,4.577,0,0,1,215.16,106.512Zm13.392,1.776a6.926,6.926,0,0,0,1.2-.1V106.44a6.463,6.463,0,0,1-.96.072c-1.272,0-2.112-.912-2.112-2.664V90h-1.968v14.088C224.712,106.752,226.248,108.288,228.552,108.288Z" transform="translate(428 6509)" fill="#fff"/>
    <path id="Path_2086" data-name="Path 2086" d="M14.184-4.752,2.976-16.8H2.4V0H4.512V-11.976L15.744,0H16.3V-16.8H14.184Zm16.848-1.92c0-3.336-1.992-5.856-5.52-5.856-3.36,0-5.952,2.352-5.952,6.312,0,3.72,2.3,6.5,6.312,6.5A10.034,10.034,0,0,0,30.336-.744v-1.8a11.392,11.392,0,0,1-4.32,1.056,4.335,4.335,0,0,1-4.44-4.536h9.432A5.033,5.033,0,0,0,31.032-6.672Zm-5.472-4.08a3.24,3.24,0,0,1,3.432,3.144H21.72A3.792,3.792,0,0,1,25.56-10.752Zm21.1,6.816-4.2-7.656h-.624L37.776-3.864l-3.36-8.376H32.3v.168L37.392,0h.288l4.488-8.328L46.728,0h.264l5.016-12.072v-.168H49.9ZM69.768-16.8H60.24V0h2.112V-7.272H68.28V-9.216H62.352v-5.616h7.416Zm11.448,5.832a6.35,6.35,0,0,0-4.224-1.56A6.064,6.064,0,0,0,70.9-6.12a6.064,6.064,0,0,0,6.1,6.408,6.35,6.35,0,0,0,4.224-1.56V0h1.968V-12.24H81.216Zm-3.96,9.48A4.37,4.37,0,0,1,72.912-6.12a4.37,4.37,0,0,1,4.344-4.632,5.655,5.655,0,0,1,3.96,1.728v5.808A5.788,5.788,0,0,1,77.256-1.488Zm16.272-11.04a5.89,5.89,0,0,0-4.152,2.184v-1.9H87.408V0h1.968V-8.9A5.287,5.287,0,0,1,93-10.392a3.6,3.6,0,0,1,.888.1V-12.5A1.589,1.589,0,0,0,93.528-12.528Zm16.3,0a5.05,5.05,0,0,0-3.984,2.376A4.073,4.073,0,0,0,102-12.528a4.418,4.418,0,0,0-3.48,1.968v-1.68H96.552V0H98.52V-8.448a4.028,4.028,0,0,1,3.288-2.3c1.512,0,2.568,1.152,2.568,3.1V0h1.968V-7.656A7.27,7.27,0,0,0,106.3-8.4a4.106,4.106,0,0,1,3.336-2.352c1.512,0,2.568,1.152,2.568,3.1V0h1.968V-7.656C114.168-10.608,112.416-12.528,109.824-12.528ZM121.176.288c2.88,0,5.016-1.224,5.016-3.552,0-1.776-.792-3.024-3.216-3.624l-1.9-.552c-1.152-.312-1.728-.816-1.728-1.608,0-1.2,1.224-1.7,2.448-1.7a7.442,7.442,0,0,1,3.528.864v-1.824a6.915,6.915,0,0,0-3.408-.816c-2.472,0-4.584,1.272-4.584,3.432,0,1.824.888,2.976,3,3.552l2.136.6c.984.264,1.728.72,1.728,1.68,0,1.128-1.32,1.8-2.88,1.8a8.759,8.759,0,0,1-3.888-1.008V-.648A7.932,7.932,0,0,0,121.176.288Zm23.3-11.256a6.35,6.35,0,0,0-4.224-1.56,6.064,6.064,0,0,0-6.1,6.408,6.064,6.064,0,0,0,6.1,6.408,6.35,6.35,0,0,0,4.224-1.56V0h1.968V-12.24H144.48Zm-3.96,9.48a4.37,4.37,0,0,1-4.344-4.632,4.37,4.37,0,0,1,4.344-4.632,5.655,5.655,0,0,1,3.96,1.728v5.808A5.788,5.788,0,0,1,140.52-1.488Zm16.272-11.04a5.26,5.26,0,0,0-4.152,1.992v-1.7h-1.968V0h1.968V-8.424a4.463,4.463,0,0,1,3.72-2.328,2.789,2.789,0,0,1,2.952,3.1V0h1.944V-7.656C161.256-10.776,159.408-12.528,156.792-12.528Zm17.856,1.56a6.35,6.35,0,0,0-4.224-1.56,6.064,6.064,0,0,0-6.1,6.408,6.064,6.064,0,0,0,6.1,6.408,6.35,6.35,0,0,0,4.224-1.56V0h1.968V-18h-1.968Zm-3.96,9.48a4.37,4.37,0,0,1-4.344-4.632,4.37,4.37,0,0,1,4.344-4.632,5.655,5.655,0,0,1,3.96,1.728v5.808A5.788,5.788,0,0,1,170.688-1.488ZM187.008-16.8V0h2.112V-6.048h2.688c4.008,0,6.672-2.112,6.672-5.376s-2.664-5.376-6.672-5.376Zm2.112,8.784v-6.816h2.688c2.712,0,4.536,1.176,4.536,3.408s-1.824,3.408-4.536,3.408Zm17.448,8.3a6.353,6.353,0,0,0,6.48-6.432,6.314,6.314,0,0,0-6.48-6.384,6.328,6.328,0,0,0-6.48,6.384A6.368,6.368,0,0,0,206.568.288Zm0-1.776A4.577,4.577,0,0,1,202.1-6.144a4.55,4.55,0,0,1,4.464-4.608,4.539,4.539,0,0,1,4.488,4.608A4.566,4.566,0,0,1,206.568-1.488ZM221.76.288a6.353,6.353,0,0,0,6.48-6.432,6.314,6.314,0,0,0-6.48-6.384,6.328,6.328,0,0,0-6.48,6.384A6.368,6.368,0,0,0,221.76.288Zm0-1.776A4.577,4.577,0,0,1,217.3-6.144a4.55,4.55,0,0,1,4.464-4.608,4.539,4.539,0,0,1,4.488,4.608A4.566,4.566,0,0,1,221.76-1.488ZM235.152.288a6.926,6.926,0,0,0,1.2-.1V-1.56a6.463,6.463,0,0,1-.96.072c-1.272,0-2.112-.912-2.112-2.664V-18h-1.968V-3.912C231.312-1.248,232.848.288,235.152.288Zm6.528,0c2.88,0,5.016-1.224,5.016-3.552,0-1.776-.792-3.024-3.216-3.624l-1.9-.552c-1.152-.312-1.728-.816-1.728-1.608,0-1.2,1.224-1.7,2.448-1.7a7.442,7.442,0,0,1,3.528.864v-1.824a6.915,6.915,0,0,0-3.408-.816c-2.472,0-4.584,1.272-4.584,3.432,0,1.824.888,2.976,3,3.552l2.136.6c.984.264,1.728.72,1.728,1.68,0,1.128-1.32,1.8-2.88,1.8a8.759,8.759,0,0,1-3.888-1.008V-.648A7.932,7.932,0,0,0,241.68.288ZM8.208,31.776,2.472,19.2H.264v.192L7.968,36h.408l7.752-16.608V19.2H13.9Zm17.4-2.448c1.824-1.992,2.808-3.624,2.808-5.52,0-2.832-2.16-4.9-5.424-4.9a8.206,8.206,0,0,0-5.184,1.872v2.208a8.046,8.046,0,0,1,5.16-2.232A3.116,3.116,0,0,1,26.4,23.808c0,1.344-.84,2.616-2.28,4.32l-6.936,7.44L17.5,36H28.9V34.152H21.072ZM40.488,19.2H38.376V36H47.9V34.032H40.488Zm15,17.088a6.408,6.408,0,1,0-6.48-6.432A6.353,6.353,0,0,0,55.488,36.288Zm0-1.776a4.634,4.634,0,1,1,4.488-4.656A4.577,4.577,0,0,1,55.488,34.512Zm14.4,0c-2.208,0-2.9-1.68-2.9-3.456V25.44h4.488V23.76H66.984V20.3H66.7l-1.68,1.416V31.1c0,2.952,1.44,5.184,4.584,5.184A7.978,7.978,0,0,0,71.76,36V34.248A7.5,7.5,0,0,1,69.888,34.512Zm9.1,0c-2.208,0-2.9-1.68-2.9-3.456V25.44h4.488V23.76H76.08V20.3h-.288l-1.68,1.416V31.1c0,2.952,1.44,5.184,4.584,5.184A7.978,7.978,0,0,0,80.856,36V34.248A7.5,7.5,0,0,1,78.984,34.512Zm9.7,1.776a6.408,6.408,0,1,0-6.48-6.432A6.353,6.353,0,0,0,88.68,36.288Zm0-1.776a4.634,4.634,0,1,1,4.488-4.656A4.577,4.577,0,0,1,88.68,34.512ZM9.144,54.936c-4.176,0-6.936,2.664-6.936,6.6V72.024H4.32V66.792h9.648v5.232H16.08V61.536C16.08,57.6,13.3,54.936,9.144,54.936ZM4.32,61.512c0-2.76,1.944-4.608,4.872-4.608a4.479,4.479,0,0,1,4.776,4.656v3.288H4.32Zm24.408,6.7a4.484,4.484,0,0,1-3.7,2.3,2.778,2.778,0,0,1-2.952-3.1V59.76H20.112v7.656c0,3.12,1.848,4.872,4.464,4.872a5.314,5.314,0,0,0,4.152-1.968V72H30.7V59.76H28.728Zm10.872,2.3c-2.208,0-2.9-1.68-2.9-3.456V61.44h4.488V59.76H36.7V56.3h-.288l-1.68,1.416V67.1c0,2.952,1.44,5.184,4.584,5.184A7.978,7.978,0,0,0,41.472,72V70.248A7.5,7.5,0,0,1,39.6,70.512Zm9.7,1.776a6.408,6.408,0,1,0-6.48-6.432A6.353,6.353,0,0,0,49.3,72.288Zm0-1.776a4.634,4.634,0,1,1,4.488-4.656A4.577,4.577,0,0,1,49.3,70.512Zm15.672-4.176v-1.8H58.56v1.8Zm9.456,5.952a6.7,6.7,0,0,0,3.312-.816V69.48h-.12a5.2,5.2,0,0,1-3.144,1.032,4.633,4.633,0,1,1,0-9.264,5.2,5.2,0,0,1,3.144,1.032h.12V60.288a6.7,6.7,0,0,0-3.312-.816,6.414,6.414,0,1,0,0,12.816Zm11.808,0a6.408,6.408,0,1,0-6.48-6.432A6.353,6.353,0,0,0,86.232,72.288Zm0-1.776a4.634,4.634,0,1,1,4.488-4.656A4.577,4.577,0,0,1,86.232,70.512Zm22.992-11.04a5.05,5.05,0,0,0-3.984,2.376,4.073,4.073,0,0,0-3.84-2.376,4.418,4.418,0,0,0-3.48,1.968V59.76H95.952V72H97.92V63.552a4.028,4.028,0,0,1,3.288-2.3c1.512,0,2.568,1.152,2.568,3.1V72h1.968V64.344a7.27,7.27,0,0,0-.048-.744,4.106,4.106,0,0,1,3.336-2.352c1.512,0,2.568,1.152,2.568,3.1V72h1.968V64.344C113.568,61.392,111.816,59.472,109.224,59.472Zm14.808,0a6.012,6.012,0,0,0-4.44,1.8V59.76h-1.968V76.68h1.968V70.488a6.18,6.18,0,0,0,10.536-4.608A6.064,6.064,0,0,0,124.032,59.472Zm-.24,11.04a5.783,5.783,0,0,1-4.2-1.992v-5.3a5.707,5.707,0,0,1,4.176-1.968,4.642,4.642,0,0,1,.024,9.264Zm15.048,1.776a6.408,6.408,0,1,0-6.48-6.432A6.353,6.353,0,0,0,138.84,72.288Zm0-1.776a4.634,4.634,0,1,1,4.488-4.656A4.577,4.577,0,0,1,138.84,70.512Zm18.144-2.3a4.484,4.484,0,0,1-3.7,2.3,2.778,2.778,0,0,1-2.952-3.1V59.76h-1.968v7.656c0,3.12,1.848,4.872,4.464,4.872a5.314,5.314,0,0,0,4.152-1.968V72h1.968V59.76h-1.968ZM169.3,59.472a5.26,5.26,0,0,0-4.152,1.992v-1.7h-1.968V72h1.968V63.576a4.463,4.463,0,0,1,3.72-2.328,2.789,2.789,0,0,1,2.952,3.1V72h1.944V64.344C173.76,61.224,171.912,59.472,169.3,59.472Zm17.856,1.56a6.35,6.35,0,0,0-4.224-1.56,6.064,6.064,0,0,0-6.1,6.408,6.064,6.064,0,0,0,6.1,6.408,6.35,6.35,0,0,0,4.224-1.56V72h1.968V54h-1.968Zm-3.96,9.48a4.642,4.642,0,0,1,0-9.264,5.655,5.655,0,0,1,3.96,1.728v5.808A5.788,5.788,0,0,1,183.192,70.512ZM194.328,56.9a1.383,1.383,0,0,0,1.368-1.368,1.358,1.358,0,0,0-1.368-1.392,1.38,1.38,0,0,0,0,2.76Zm.984,15.1V59.76h-1.968V72Zm10.344-12.528a5.26,5.26,0,0,0-4.152,1.992v-1.7h-1.968V72H201.5V63.576a4.463,4.463,0,0,1,3.72-2.328,2.789,2.789,0,0,1,2.952,3.1V72h1.944V64.344C210.12,61.224,208.272,59.472,205.656,59.472ZM223.8,61.32a6.408,6.408,0,1,0,0,9.12v.072c0,3.072-1.824,4.68-4.512,4.68a11.371,11.371,0,0,1-4.872-1.152v1.776a11.044,11.044,0,0,0,4.872,1.152,6.085,6.085,0,0,0,6.48-6.336V59.76H223.8Zm-4.224,9.192a4.642,4.642,0,0,1,0-9.264,5.767,5.767,0,0,1,4.224,2.016V68.5A5.855,5.855,0,0,1,219.576,70.512Zm19.944-2.28-3.984-8.472H233.5v.168L239.424,72h.192l5.9-12.072V59.76h-2.04Zm17.5-7.2a6.35,6.35,0,0,0-4.224-1.56,6.064,6.064,0,0,0-6.1,6.408,6.064,6.064,0,0,0,6.1,6.408,6.35,6.35,0,0,0,4.224-1.56V72h1.968V59.76h-1.968Zm-3.96,9.48a4.642,4.642,0,0,1,0-9.264,5.655,5.655,0,0,1,3.96,1.728v5.808A5.788,5.788,0,0,1,253.056,70.512Zm18.576-2.3a4.484,4.484,0,0,1-3.7,2.3,2.778,2.778,0,0,1-2.952-3.1V59.76h-1.968v7.656c0,3.12,1.848,4.872,4.464,4.872a5.314,5.314,0,0,0,4.152-1.968V72H273.6V59.76h-1.968Zm9.864,4.08a6.926,6.926,0,0,0,1.2-.1V70.44a6.464,6.464,0,0,1-.96.072c-1.272,0-2.112-.912-2.112-2.664V54h-1.968V68.088C277.656,70.752,279.192,72.288,281.5,72.288Zm8.136-1.776c-2.208,0-2.9-1.68-2.9-3.456V61.44h4.488V59.76h-4.488V56.3h-.288l-1.68,1.416V67.1c0,2.952,1.44,5.184,4.584,5.184A7.978,7.978,0,0,0,291.5,72V70.248A7.5,7.5,0,0,1,289.632,70.512Zm7.392,1.776c2.88,0,5.016-1.224,5.016-3.552,0-1.776-.792-3.024-3.216-3.624l-1.9-.552c-1.152-.312-1.728-.816-1.728-1.608,0-1.2,1.224-1.7,2.448-1.7a7.442,7.442,0,0,1,3.528.864V60.288a6.915,6.915,0,0,0-3.408-.816c-2.472,0-4.584,1.272-4.584,3.432,0,1.824.888,2.976,3,3.552l2.136.6c.984.264,1.728.72,1.728,1.68,0,1.128-1.32,1.8-2.88,1.8a8.759,8.759,0,0,1-3.888-1.008v1.824A7.932,7.932,0,0,0,297.024,72.288Zm-282.84,30.96L2.976,91.2H2.4V108H4.512V96.024L15.744,108H16.3V91.2H14.184ZM30.624,91.2H21.1V108h2.112v-7.272h5.928V98.784H23.208V93.168h7.416Zm1.488,0v1.968h4.632V108h2.112V93.168H43.44V91.2Zm15.24,17.088c2.88,0,5.016-1.224,5.016-3.552,0-1.776-.792-3.024-3.216-3.624l-1.9-.552c-1.152-.312-1.728-.816-1.728-1.608,0-1.2,1.224-1.7,2.448-1.7a7.442,7.442,0,0,1,3.528.864V96.288a6.915,6.915,0,0,0-3.408-.816c-2.472,0-4.584,1.272-4.584,3.432,0,1.824.888,2.976,3,3.552l2.136.6c.984.264,1.728.72,1.728,1.68,0,1.128-1.32,1.8-2.88,1.8a8.759,8.759,0,0,1-3.888-1.008v1.824A7.932,7.932,0,0,0,47.352,108.288Zm26.064-4.224-4.2-7.656h-.624l-4.056,7.728-3.36-8.376H59.064v.168L64.152,108h.288l4.488-8.328L73.488,108h.264l5.016-12.072V95.76H76.656ZM82.368,92.9a1.383,1.383,0,0,0,1.368-1.368,1.358,1.358,0,0,0-1.368-1.392,1.38,1.38,0,0,0,0,2.76Zm.984,15.1V95.76H81.384V108Zm8.9-1.488c-2.208,0-2.9-1.68-2.9-3.456V97.44H93.84V95.76H89.352V92.3h-.288l-1.68,1.416V103.1c0,2.952,1.44,5.184,4.584,5.184a7.978,7.978,0,0,0,2.16-.288v-1.752A7.5,7.5,0,0,1,92.256,106.512Zm10.56-11.04a5.26,5.26,0,0,0-4.152,1.992V90H96.7v18h1.968V99.576a4.463,4.463,0,0,1,3.72-2.328,2.789,2.789,0,0,1,2.952,3.1V108h1.944v-7.656C107.28,97.224,105.432,95.472,102.816,95.472Zm23.736,1.56a6.35,6.35,0,0,0-4.224-1.56,6.416,6.416,0,0,0,0,12.816,6.35,6.35,0,0,0,4.224-1.56V108h1.968V95.76h-1.968Zm-3.96,9.48a4.642,4.642,0,0,1,0-9.264,5.655,5.655,0,0,1,3.96,1.728v5.808A5.788,5.788,0,0,1,122.592,106.512Zm20.712,0c-2.208,0-2.9-1.68-2.9-3.456V97.44h4.488V95.76H140.4V92.3h-.288l-1.68,1.416V103.1c0,2.952,1.44,5.184,4.584,5.184a7.978,7.978,0,0,0,2.16-.288v-1.752A7.5,7.5,0,0,1,143.3,106.512Zm17.112-2.448-4.2-7.656h-.624l-4.056,7.728-3.36-8.376h-2.112v.168L151.152,108h.288l4.488-8.328,4.56,8.328h.264l5.016-12.072V95.76h-2.112Zm8.952-11.16a1.383,1.383,0,0,0,1.368-1.368,1.358,1.358,0,0,0-1.368-1.392,1.38,1.38,0,0,0,0,2.76Zm.984,15.1V95.76h-1.968V108Zm7.176.288c2.88,0,5.016-1.224,5.016-3.552,0-1.776-.792-3.024-3.216-3.624l-1.9-.552c-1.152-.312-1.728-.816-1.728-1.608,0-1.2,1.224-1.7,2.448-1.7a7.442,7.442,0,0,1,3.528.864V96.288a6.915,6.915,0,0,0-3.408-.816c-2.472,0-4.584,1.272-4.584,3.432,0,1.824.888,2.976,3,3.552l2.136.6c.984.264,1.728.72,1.728,1.68,0,1.128-1.32,1.8-2.88,1.8a8.759,8.759,0,0,1-3.888-1.008v1.824A7.932,7.932,0,0,0,177.528,108.288Zm12.768-1.776c-2.208,0-2.9-1.68-2.9-3.456V97.44h4.488V95.76h-4.488V92.3H187.1l-1.68,1.416V103.1c0,2.952,1.44,5.184,4.584,5.184a7.978,7.978,0,0,0,2.16-.288v-1.752A7.5,7.5,0,0,1,190.3,106.512ZM203.016,91.2H200.9V108h9.528v-1.968h-7.416Zm18.936,5.832a6.35,6.35,0,0,0-4.224-1.56,6.416,6.416,0,0,0,0,12.816,6.35,6.35,0,0,0,4.224-1.56V108h1.968V95.76h-1.968Zm-3.96,9.48a4.642,4.642,0,0,1,0-9.264,5.655,5.655,0,0,1,3.96,1.728v5.808A5.788,5.788,0,0,1,217.992,106.512Zm18.576-2.3a4.484,4.484,0,0,1-3.7,2.3,2.778,2.778,0,0,1-2.952-3.1V95.76h-1.968v7.656c0,3.12,1.848,4.872,4.464,4.872a5.314,5.314,0,0,0,4.152-1.968V108h1.968V95.76h-1.968Zm12.312-8.736a5.26,5.26,0,0,0-4.152,1.992v-1.7H242.76V108h1.968V99.576a4.463,4.463,0,0,1,3.72-2.328,2.789,2.789,0,0,1,2.952,3.1V108h1.944v-7.656C253.344,97.224,251.5,95.472,248.88,95.472Zm14.208,12.816a6.7,6.7,0,0,0,3.312-.816V105.48h-.12a5.2,5.2,0,0,1-3.144,1.032,4.633,4.633,0,1,1,0-9.264,5.2,5.2,0,0,1,3.144,1.032h.12V96.288a6.7,6.7,0,0,0-3.312-.816,6.414,6.414,0,1,0,0,12.816Zm12.7-12.816a5.26,5.26,0,0,0-4.152,1.992V90h-1.968v18h1.968V99.576a4.463,4.463,0,0,1,3.72-2.328,2.789,2.789,0,0,1,2.952,3.1V108h1.944v-7.656C280.248,97.224,278.4,95.472,275.784,95.472Zm14.928,0a6.012,6.012,0,0,0-4.44,1.8V95.76H284.3v16.92h1.968v-6.192a6.318,6.318,0,1,0,4.44-11.016Zm-.24,11.04a5.783,5.783,0,0,1-4.2-1.992v-5.3a5.707,5.707,0,0,1,4.176-1.968,4.642,4.642,0,0,1,.024,9.264Zm18.912-9.48a6.35,6.35,0,0,0-4.224-1.56,6.416,6.416,0,0,0,0,12.816,6.35,6.35,0,0,0,4.224-1.56V108h1.968V95.76h-1.968Zm-3.96,9.48a4.642,4.642,0,0,1,0-9.264,5.655,5.655,0,0,1,3.96,1.728v5.808A5.788,5.788,0,0,1,305.424,106.512Zm19.488-9.48a6.35,6.35,0,0,0-4.224-1.56,6.416,6.416,0,0,0,0,12.816,6.35,6.35,0,0,0,4.224-1.56V108h1.968V90h-1.968Zm-3.96,9.48a4.642,4.642,0,0,1,0-9.264,5.655,5.655,0,0,1,3.96,1.728v5.808A5.788,5.788,0,0,1,320.952,106.512Z" transform="translate(742 6820)" fill="#fff"/>
    <path id="Path_2088" data-name="Path 2088" d="M17.688-16.8h-.576L10.9-4.776,4.656-16.8H4.08L1.128,0H3.24L5.28-11.352,10.632-.768h.5l5.352-10.56L18.552,0h2.112ZM29.208.288a6.353,6.353,0,0,0,6.48-6.432,6.314,6.314,0,0,0-6.48-6.384,6.328,6.328,0,0,0-6.48,6.384A6.368,6.368,0,0,0,29.208.288Zm0-1.776a4.577,4.577,0,0,1-4.464-4.656,4.55,4.55,0,0,1,4.464-4.608A4.539,4.539,0,0,1,33.7-6.144,4.566,4.566,0,0,1,29.208-1.488Zm15.84-11.04A5.89,5.89,0,0,0,40.9-10.344v-1.9H38.928V0H40.9V-8.9a5.287,5.287,0,0,1,3.624-1.488,3.6,3.6,0,0,1,.888.1V-12.5A1.589,1.589,0,0,0,45.048-12.528ZM58.2-6.672c0-3.336-1.992-5.856-5.52-5.856-3.36,0-5.952,2.352-5.952,6.312,0,3.72,2.3,6.5,6.312,6.5A10.034,10.034,0,0,0,57.5-.744v-1.8a11.392,11.392,0,0,1-4.32,1.056,4.335,4.335,0,0,1-4.44-4.536h9.432A5.033,5.033,0,0,0,58.2-6.672Zm-5.472-4.08A3.24,3.24,0,0,1,56.16-7.608H48.888A3.792,3.792,0,0,1,52.728-10.752Zm26.568,6L68.088-16.8h-.576V0h2.112V-11.976L80.856,0h.552V-16.8H79.3Zm16.848-1.92c0-3.336-1.992-5.856-5.52-5.856-3.36,0-5.952,2.352-5.952,6.312,0,3.72,2.3,6.5,6.312,6.5A10.034,10.034,0,0,0,95.448-.744v-1.8a11.392,11.392,0,0,1-4.32,1.056,4.335,4.335,0,0,1-4.44-4.536H96.12A5.033,5.033,0,0,0,96.144-6.672Zm-5.472-4.08A3.24,3.24,0,0,1,94.1-7.608H86.832A3.792,3.792,0,0,1,90.672-10.752Zm21.1,6.816-4.2-7.656h-.624l-4.056,7.728-3.36-8.376H97.416v.168L102.5,0h.288l4.488-8.328L111.84,0h.264l5.016-12.072v-.168h-2.112ZM122.544.288c2.88,0,5.016-1.224,5.016-3.552,0-1.776-.792-3.024-3.216-3.624l-1.9-.552c-1.152-.312-1.728-.816-1.728-1.608,0-1.2,1.224-1.7,2.448-1.7a7.442,7.442,0,0,1,3.528.864v-1.824a6.915,6.915,0,0,0-3.408-.816c-2.472,0-4.584,1.272-4.584,3.432,0,1.824.888,2.976,3,3.552l2.136.6c.984.264,1.728.72,1.728,1.68,0,1.128-1.32,1.8-2.88,1.8A8.759,8.759,0,0,1,118.8-2.472V-.648A7.932,7.932,0,0,0,122.544.288Zm23.3-11.256a6.35,6.35,0,0,0-4.224-1.56,6.064,6.064,0,0,0-6.1,6.408,6.064,6.064,0,0,0,6.1,6.408,6.35,6.35,0,0,0,4.224-1.56V0h1.968V-12.24h-1.968Zm-3.96,9.48a4.37,4.37,0,0,1-4.344-4.632,4.37,4.37,0,0,1,4.344-4.632,5.655,5.655,0,0,1,3.96,1.728v5.808A5.788,5.788,0,0,1,141.888-1.488Zm16.272-11.04a5.89,5.89,0,0,0-4.152,2.184v-1.9H152.04V0h1.968V-8.9a5.287,5.287,0,0,1,3.624-1.488,3.6,3.6,0,0,1,.888.1V-12.5A1.589,1.589,0,0,0,158.16-12.528Zm13.152,5.856c0-3.336-1.992-5.856-5.52-5.856-3.36,0-5.952,2.352-5.952,6.312,0,3.72,2.3,6.5,6.312,6.5a10.033,10.033,0,0,0,4.464-1.032v-1.8a11.392,11.392,0,0,1-4.32,1.056,4.335,4.335,0,0,1-4.44-4.536h9.432A5.033,5.033,0,0,0,171.312-6.672Zm-5.472-4.08a3.24,3.24,0,0,1,3.432,3.144H162A3.792,3.792,0,0,1,165.84-10.752ZM186.024.288a6.7,6.7,0,0,0,3.312-.816V-2.52h-.12a5.2,5.2,0,0,1-3.144,1.032,4.553,4.553,0,0,1-4.728-4.632,4.553,4.553,0,0,1,4.728-4.632,5.2,5.2,0,0,1,3.144,1.032h.12v-1.992a6.7,6.7,0,0,0-3.312-.816,6.358,6.358,0,0,0-6.7,6.408A6.358,6.358,0,0,0,186.024.288Zm11.808,0a6.353,6.353,0,0,0,6.48-6.432,6.314,6.314,0,0,0-6.48-6.384,6.328,6.328,0,0,0-6.48,6.384A6.368,6.368,0,0,0,197.832.288Zm0-1.776a4.577,4.577,0,0,1-4.464-4.656,4.55,4.55,0,0,1,4.464-4.608,4.539,4.539,0,0,1,4.488,4.608A4.566,4.566,0,0,1,197.832-1.488Zm22.992-11.04a5.05,5.05,0,0,0-3.984,2.376A4.073,4.073,0,0,0,213-12.528a4.418,4.418,0,0,0-3.48,1.968v-1.68h-1.968V0h1.968V-8.448a4.028,4.028,0,0,1,3.288-2.3c1.512,0,2.568,1.152,2.568,3.1V0h1.968V-7.656A7.268,7.268,0,0,0,217.3-8.4a4.106,4.106,0,0,1,3.336-2.352c1.512,0,2.568,1.152,2.568,3.1V0h1.968V-7.656C225.168-10.608,223.416-12.528,220.824-12.528Zm9.384-2.568a1.383,1.383,0,0,0,1.368-1.368,1.358,1.358,0,0,0-1.368-1.392,1.388,1.388,0,0,0-1.368,1.392A1.383,1.383,0,0,0,230.208-15.1ZM231.192,0V-12.24h-1.968V0Zm10.344-12.528a5.26,5.26,0,0,0-4.152,1.992v-1.7h-1.968V0h1.968V-8.424a4.463,4.463,0,0,1,3.72-2.328,2.789,2.789,0,0,1,2.952,3.1V0H246V-7.656C246-10.776,244.152-12.528,241.536-12.528ZM259.68-10.68a6.1,6.1,0,0,0-4.488-1.848,6.064,6.064,0,0,0-6.1,6.408,6.064,6.064,0,0,0,6.1,6.408A6.1,6.1,0,0,0,259.68-1.56v.072c0,3.072-1.824,4.68-4.512,4.68A11.371,11.371,0,0,1,250.3,2.04V3.816a11.044,11.044,0,0,0,4.872,1.152,6.085,6.085,0,0,0,6.48-6.336V-12.24H259.68Zm-4.224,9.192a4.37,4.37,0,0,1-4.344-4.632,4.37,4.37,0,0,1,4.344-4.632,5.767,5.767,0,0,1,4.224,2.016V-3.5A5.855,5.855,0,0,1,255.456-1.488ZM277.416.288a6.7,6.7,0,0,0,3.312-.816V-2.52h-.12a5.2,5.2,0,0,1-3.144,1.032,4.553,4.553,0,0,1-4.728-4.632,4.553,4.553,0,0,1,4.728-4.632,5.2,5.2,0,0,1,3.144,1.032h.12v-1.992a6.7,6.7,0,0,0-3.312-.816,6.358,6.358,0,0,0-6.7,6.408A6.358,6.358,0,0,0,277.416.288Zm11.808,0a6.353,6.353,0,0,0,6.48-6.432,6.314,6.314,0,0,0-6.48-6.384,6.328,6.328,0,0,0-6.48,6.384A6.368,6.368,0,0,0,289.224.288Zm0-1.776a4.577,4.577,0,0,1-4.464-4.656,4.55,4.55,0,0,1,4.464-4.608,4.539,4.539,0,0,1,4.488,4.608A4.566,4.566,0,0,1,289.224-1.488ZM304.416.288a6.353,6.353,0,0,0,6.48-6.432,6.314,6.314,0,0,0-6.48-6.384,6.328,6.328,0,0,0-6.48,6.384A6.368,6.368,0,0,0,304.416.288Zm0-1.776a4.577,4.577,0,0,1-4.464-4.656,4.55,4.55,0,0,1,4.464-4.608A4.539,4.539,0,0,1,308.9-6.144,4.566,4.566,0,0,1,304.416-1.488Zm15.84-11.04a5.26,5.26,0,0,0-4.152,1.992v-1.7h-1.968V0H316.1V-8.424a4.463,4.463,0,0,1,3.72-2.328,2.789,2.789,0,0,1,2.952,3.1V0h1.944V-7.656C324.72-10.776,322.872-12.528,320.256-12.528ZM14.184,31.248,2.976,19.2H2.4V36H4.512V24.024L15.744,36H16.3V19.2H14.184Zm16.848-1.92c0-3.336-1.992-5.856-5.52-5.856-3.36,0-5.952,2.352-5.952,6.312,0,3.72,2.3,6.5,6.312,6.5a10.034,10.034,0,0,0,4.464-1.032v-1.8a11.392,11.392,0,0,1-4.32,1.056,4.335,4.335,0,0,1-4.44-4.536h9.432A5.033,5.033,0,0,0,31.032,29.328Zm-5.472-4.08a3.24,3.24,0,0,1,3.432,3.144H21.72A3.792,3.792,0,0,1,25.56,25.248Zm21.1,6.816-4.2-7.656h-.624l-4.056,7.728-3.36-8.376H32.3v.168L37.392,36h.288l4.488-8.328L46.728,36h.264l5.016-12.072V23.76H49.9Zm10.776,4.224c2.88,0,5.016-1.224,5.016-3.552,0-1.776-.792-3.024-3.216-3.624l-1.9-.552c-1.152-.312-1.728-.816-1.728-1.608,0-1.2,1.224-1.7,2.448-1.7a7.442,7.442,0,0,1,3.528.864V24.288a6.915,6.915,0,0,0-3.408-.816c-2.472,0-4.584,1.272-4.584,3.432,0,1.824.888,2.976,3,3.552l2.136.6c.984.264,1.728.72,1.728,1.68,0,1.128-1.32,1.8-2.88,1.8a8.759,8.759,0,0,1-3.888-1.008v1.824A7.932,7.932,0,0,0,57.432,36.288Zm19.656,0a6.7,6.7,0,0,0,3.312-.816V33.48h-.12a5.2,5.2,0,0,1-3.144,1.032,4.633,4.633,0,1,1,0-9.264A5.2,5.2,0,0,1,80.28,26.28h.12V24.288a6.7,6.7,0,0,0-3.312-.816,6.414,6.414,0,1,0,0,12.816Zm11.808,0a6.408,6.408,0,1,0-6.48-6.432A6.353,6.353,0,0,0,88.9,36.288Zm0-1.776a4.634,4.634,0,1,1,4.488-4.656A4.577,4.577,0,0,1,88.9,34.512Zm22.992-11.04a5.05,5.05,0,0,0-3.984,2.376,4.073,4.073,0,0,0-3.84-2.376,4.418,4.418,0,0,0-3.48,1.968V23.76H98.616V36h1.968V27.552a4.028,4.028,0,0,1,3.288-2.3c1.512,0,2.568,1.152,2.568,3.1V36h1.968V28.344a7.27,7.27,0,0,0-.048-.744,4.106,4.106,0,0,1,3.336-2.352c1.512,0,2.568,1.152,2.568,3.1V36h1.968V28.344C116.232,25.392,114.48,23.472,111.888,23.472Zm9.384-2.568a1.383,1.383,0,0,0,1.368-1.368,1.358,1.358,0,0,0-1.368-1.392,1.38,1.38,0,0,0,0,2.76Zm.984,15.1V23.76h-1.968V36ZM132.6,23.472a5.26,5.26,0,0,0-4.152,1.992v-1.7H126.48V36h1.968V27.576a4.463,4.463,0,0,1,3.72-2.328,2.789,2.789,0,0,1,2.952,3.1V36h1.944V28.344C137.064,25.224,135.216,23.472,132.6,23.472Zm18.144,1.848a6.18,6.18,0,0,0-10.584,4.56,6.18,6.18,0,0,0,10.584,4.56v.072c0,3.072-1.824,4.68-4.512,4.68a11.371,11.371,0,0,1-4.872-1.152v1.776a11.044,11.044,0,0,0,4.872,1.152,6.085,6.085,0,0,0,6.48-6.336V23.76h-1.968Zm-4.224,9.192a4.37,4.37,0,0,1-4.344-4.632,4.37,4.37,0,0,1,4.344-4.632,5.767,5.767,0,0,1,4.224,2.016V32.5A5.855,5.855,0,0,1,146.52,34.512Zm21.96,1.776a6.7,6.7,0,0,0,3.312-.816V33.48h-.12a5.2,5.2,0,0,1-3.144,1.032,4.633,4.633,0,1,1,0-9.264,5.2,5.2,0,0,1,3.144,1.032h.12V24.288a6.7,6.7,0,0,0-3.312-.816,6.414,6.414,0,1,0,0,12.816Zm11.808,0a6.408,6.408,0,1,0-6.48-6.432A6.353,6.353,0,0,0,180.288,36.288Zm0-1.776a4.634,4.634,0,1,1,4.488-4.656A4.577,4.577,0,0,1,180.288,34.512Zm15.192,1.776A6.408,6.408,0,1,0,189,29.856,6.353,6.353,0,0,0,195.48,36.288Zm0-1.776a4.634,4.634,0,1,1,4.488-4.656A4.577,4.577,0,0,1,195.48,34.512Zm15.84-11.04a5.26,5.26,0,0,0-4.152,1.992v-1.7H205.2V36h1.968V27.576a4.463,4.463,0,0,1,3.72-2.328,2.789,2.789,0,0,1,2.952,3.1V36h1.944V28.344C215.784,25.224,213.936,23.472,211.32,23.472Z" transform="translate(1377 6820)" fill="#fff"/>
    <path id="Path_2087" data-name="Path 2087" d="M14.184-4.752,2.976-16.8H2.4V0H4.512V-11.976L15.744,0H16.3V-16.8H14.184Zm16.848-1.92c0-3.336-1.992-5.856-5.52-5.856-3.36,0-5.952,2.352-5.952,6.312,0,3.72,2.3,6.5,6.312,6.5A10.034,10.034,0,0,0,30.336-.744v-1.8a11.392,11.392,0,0,1-4.32,1.056,4.335,4.335,0,0,1-4.44-4.536h9.432A5.033,5.033,0,0,0,31.032-6.672Zm-5.472-4.08a3.24,3.24,0,0,1,3.432,3.144H21.72A3.792,3.792,0,0,1,25.56-10.752Zm21.1,6.816-4.2-7.656h-.624L37.776-3.864l-3.36-8.376H32.3v.168L37.392,0h.288l4.488-8.328L46.728,0h.264l5.016-12.072v-.168H49.9ZM69.768-16.8H60.24V0h2.112V-7.272H68.28V-9.216H62.352v-5.616h7.416Zm11.448,5.832a6.35,6.35,0,0,0-4.224-1.56A6.064,6.064,0,0,0,70.9-6.12a6.064,6.064,0,0,0,6.1,6.408,6.35,6.35,0,0,0,4.224-1.56V0h1.968V-12.24H81.216Zm-3.96,9.48A4.37,4.37,0,0,1,72.912-6.12a4.37,4.37,0,0,1,4.344-4.632,5.655,5.655,0,0,1,3.96,1.728v5.808A5.788,5.788,0,0,1,77.256-1.488Zm16.272-11.04a5.89,5.89,0,0,0-4.152,2.184v-1.9H87.408V0h1.968V-8.9A5.287,5.287,0,0,1,93-10.392a3.6,3.6,0,0,1,.888.1V-12.5A1.589,1.589,0,0,0,93.528-12.528Zm16.3,0a5.05,5.05,0,0,0-3.984,2.376A4.073,4.073,0,0,0,102-12.528a4.418,4.418,0,0,0-3.48,1.968v-1.68H96.552V0H98.52V-8.448a4.028,4.028,0,0,1,3.288-2.3c1.512,0,2.568,1.152,2.568,3.1V0h1.968V-7.656A7.27,7.27,0,0,0,106.3-8.4a4.106,4.106,0,0,1,3.336-2.352c1.512,0,2.568,1.152,2.568,3.1V0h1.968V-7.656C114.168-10.608,112.416-12.528,109.824-12.528ZM138.12-8.5v-.36h-1.992l-2.4,3.264-3.072-3.336c2.256-1.032,3.432-2.592,3.432-4.392,0-2.256-1.7-3.768-4.248-3.768-2.52,0-4.224,1.536-4.224,3.84,0,1.824,1.056,2.856,1.992,3.84-3.048,1.056-4.584,2.88-4.584,5.184,0,2.544,2.184,4.512,5.112,4.512a7.2,7.2,0,0,0,5.64-3.048L136.3,0H138.5V-.408l-3.552-3.864Zm-8.256-6.936a2.1,2.1,0,0,1,2.184,2.232c0,1.152-.888,2.232-2.544,3.048-.912-.912-1.824-1.776-1.824-3.048A2.079,2.079,0,0,1,129.864-15.432ZM128.208-1.416a3.027,3.027,0,0,1-3.144-2.952c0-1.608,1.248-3,3.816-3.7l3.672,3.984A5.677,5.677,0,0,1,128.208-1.416ZM146.9-16.8V0h2.112V-6.048H151.7c4.008,0,6.672-2.112,6.672-5.376S155.712-16.8,151.7-16.8Zm2.112,8.784v-6.816H151.7c2.712,0,4.536,1.176,4.536,3.408s-1.824,3.408-4.536,3.408Zm17.448,8.3a6.353,6.353,0,0,0,6.48-6.432,6.314,6.314,0,0,0-6.48-6.384,6.328,6.328,0,0,0-6.48,6.384A6.368,6.368,0,0,0,166.464.288Zm0-1.776A4.577,4.577,0,0,1,162-6.144a4.55,4.55,0,0,1,4.464-4.608,4.539,4.539,0,0,1,4.488,4.608A4.566,4.566,0,0,1,166.464-1.488ZM181.656.288a6.353,6.353,0,0,0,6.48-6.432,6.314,6.314,0,0,0-6.48-6.384,6.328,6.328,0,0,0-6.48,6.384A6.368,6.368,0,0,0,181.656.288Zm0-1.776a4.577,4.577,0,0,1-4.464-4.656,4.55,4.55,0,0,1,4.464-4.608,4.539,4.539,0,0,1,4.488,4.608A4.566,4.566,0,0,1,181.656-1.488ZM195.048.288a6.926,6.926,0,0,0,1.2-.1V-1.56a6.463,6.463,0,0,1-.96.072c-1.272,0-2.112-.912-2.112-2.664V-18h-1.968V-3.912C191.208-1.248,192.744.288,195.048.288Zm6.528,0c2.88,0,5.016-1.224,5.016-3.552,0-1.776-.792-3.024-3.216-3.624l-1.9-.552c-1.152-.312-1.728-.816-1.728-1.608,0-1.2,1.224-1.7,2.448-1.7a7.442,7.442,0,0,1,3.528.864v-1.824a6.915,6.915,0,0,0-3.408-.816c-2.472,0-4.584,1.272-4.584,3.432,0,1.824.888,2.976,3,3.552l2.136.6c.984.264,1.728.72,1.728,1.68,0,1.128-1.32,1.8-2.88,1.8a8.759,8.759,0,0,1-3.888-1.008V-.648A7.932,7.932,0,0,0,201.576.288ZM14.184,31.248,2.976,19.2H2.4V36H4.512V24.024L15.744,36H16.3V19.2H14.184ZM30.624,19.2H21.1V36h2.112V28.728h5.928V26.784H23.208V21.168h7.416Zm1.488,0v1.968h4.632V36h2.112V21.168H43.44V19.2Zm34.848,0h-.576L60.168,31.224,53.928,19.2h-.576L50.4,36h2.112l2.04-11.352L59.9,35.232h.5l5.352-10.56L67.824,36h2.112Zm15.408,5.832a6.35,6.35,0,0,0-4.224-1.56,6.064,6.064,0,0,0-6.1,6.408,6.064,6.064,0,0,0,6.1,6.408,6.35,6.35,0,0,0,4.224-1.56V36h1.968V23.76H82.368Zm-3.96,9.48a4.37,4.37,0,0,1-4.344-4.632,4.37,4.37,0,0,1,4.344-4.632,5.655,5.655,0,0,1,3.96,1.728v5.808A5.788,5.788,0,0,1,78.408,34.512ZM94.68,23.472a5.89,5.89,0,0,0-4.152,2.184v-1.9H88.56V36h1.968V27.1a5.287,5.287,0,0,1,3.624-1.488,3.6,3.6,0,0,1,.888.1V23.5A1.589,1.589,0,0,0,94.68,23.472Zm7.824,6.144a7.589,7.589,0,0,0,4.272-5.856h-2.04a5.494,5.494,0,0,1-5.064,4.776V18H97.7V36h1.968V29.328L105.36,36h2.3v-.288Zm17.688-.288c0-3.336-1.992-5.856-5.52-5.856-3.36,0-5.952,2.352-5.952,6.312,0,3.72,2.3,6.5,6.312,6.5a10.034,10.034,0,0,0,4.464-1.032v-1.8a11.392,11.392,0,0,1-4.32,1.056,4.335,4.335,0,0,1-4.44-4.536h9.432A5.033,5.033,0,0,0,120.192,29.328Zm-5.472-4.08a3.24,3.24,0,0,1,3.432,3.144H110.88A3.792,3.792,0,0,1,114.72,25.248Zm13.3,9.264c-2.208,0-2.9-1.68-2.9-3.456V25.44H129.6V23.76h-4.488V20.3h-.288l-1.68,1.416V31.1c0,2.952,1.44,5.184,4.584,5.184a7.978,7.978,0,0,0,2.16-.288V34.248A7.5,7.5,0,0,1,128.016,34.512Zm10.848-11.04a6.012,6.012,0,0,0-4.44,1.8V23.76h-1.968V40.68h1.968V34.488A6.18,6.18,0,0,0,144.96,29.88,6.064,6.064,0,0,0,138.864,23.472Zm-.24,11.04a5.783,5.783,0,0,1-4.2-1.992v-5.3a5.707,5.707,0,0,1,4.176-1.968,4.343,4.343,0,0,1,4.344,4.632A4.352,4.352,0,0,1,138.624,34.512Zm13.248,1.776a6.926,6.926,0,0,0,1.2-.1V34.44a6.463,6.463,0,0,1-.96.072c-1.272,0-2.112-.912-2.112-2.664V18h-1.968V32.088C148.032,34.752,149.568,36.288,151.872,36.288Zm12.744-11.256a6.35,6.35,0,0,0-4.224-1.56,6.064,6.064,0,0,0-6.1,6.408,6.064,6.064,0,0,0,6.1,6.408,6.35,6.35,0,0,0,4.224-1.56V36h1.968V23.76h-1.968Zm-3.96,9.48a4.37,4.37,0,0,1-4.344-4.632,4.37,4.37,0,0,1,4.344-4.632,5.655,5.655,0,0,1,3.96,1.728v5.808A5.788,5.788,0,0,1,160.656,34.512Zm15.84,1.776a6.7,6.7,0,0,0,3.312-.816V33.48h-.12a5.2,5.2,0,0,1-3.144,1.032,4.633,4.633,0,1,1,0-9.264,5.2,5.2,0,0,1,3.144,1.032h.12V24.288a6.7,6.7,0,0,0-3.312-.816,6.414,6.414,0,1,0,0,12.816Zm16.848-6.96c0-3.336-1.992-5.856-5.52-5.856-3.36,0-5.952,2.352-5.952,6.312,0,3.72,2.3,6.5,6.312,6.5a10.033,10.033,0,0,0,4.464-1.032v-1.8a11.392,11.392,0,0,1-4.32,1.056,4.335,4.335,0,0,1-4.44-4.536h9.432A5.036,5.036,0,0,0,193.344,29.328Zm-5.472-4.08a3.24,3.24,0,0,1,3.432,3.144h-7.272A3.792,3.792,0,0,1,187.872,25.248ZM9.528,65.232h5.544v3.912a9.207,9.207,0,0,1-4.944,1.176,6.72,6.72,0,1,1-.048-13.44,9.174,9.174,0,0,1,6.048,2.352H16.3V56.976a10.016,10.016,0,0,0-6.216-2.064A8.69,8.69,0,1,0,10.1,72.288a13.172,13.172,0,0,0,6.936-1.944v-7.08H9.528Zm20.424-4.2a6.35,6.35,0,0,0-4.224-1.56,6.064,6.064,0,0,0-6.1,6.408,6.064,6.064,0,0,0,6.1,6.408,6.35,6.35,0,0,0,4.224-1.56V72H31.92V59.76H29.952Zm-3.96,9.48a4.642,4.642,0,0,1,0-9.264,5.655,5.655,0,0,1,3.96,1.728v5.808A5.788,5.788,0,0,1,25.992,70.512Zm23.424-11.04a5.05,5.05,0,0,0-3.984,2.376,4.073,4.073,0,0,0-3.84-2.376,4.418,4.418,0,0,0-3.48,1.968V59.76H36.144V72h1.968V63.552a4.028,4.028,0,0,1,3.288-2.3c1.512,0,2.568,1.152,2.568,3.1V72h1.968V64.344a7.268,7.268,0,0,0-.048-.744,4.106,4.106,0,0,1,3.336-2.352c1.512,0,2.568,1.152,2.568,3.1V72H53.76V64.344C53.76,61.392,52.008,59.472,49.416,59.472ZM58.8,56.9a1.383,1.383,0,0,0,1.368-1.368A1.358,1.358,0,0,0,58.8,54.144a1.38,1.38,0,0,0,0,2.76ZM59.784,72V59.76H57.816V72ZM74.5,59.76h-8.52c.072-2.688,1.776-4.272,3.864-4.272a5.159,5.159,0,0,1,3.528,1.056V54.768a5.549,5.549,0,0,0-3.792-1.056c-3.216,0-5.568,2.3-5.568,6.192V72h1.968V61.44h6.552V72H74.5Zm14.76,5.568c0-3.336-1.992-5.856-5.52-5.856-3.36,0-5.952,2.352-5.952,6.312,0,3.72,2.3,6.5,6.312,6.5a10.034,10.034,0,0,0,4.464-1.032v-1.8a11.392,11.392,0,0,1-4.32,1.056,4.335,4.335,0,0,1-4.44-4.536h9.432A5.033,5.033,0,0,0,89.256,65.328Zm-5.472-4.08a3.24,3.24,0,0,1,3.432,3.144H79.944A3.792,3.792,0,0,1,83.784,61.248Zm17.952-.216a6.35,6.35,0,0,0-4.224-1.56,6.064,6.064,0,0,0-6.1,6.408,6.064,6.064,0,0,0,6.1,6.408,6.35,6.35,0,0,0,4.224-1.56V72H103.7V54h-1.968Zm-3.96,9.48a4.642,4.642,0,0,1,0-9.264,5.655,5.655,0,0,1,3.96,1.728v5.808A5.788,5.788,0,0,1,97.776,70.512ZM114.1,55.2V72h2.112V65.952H118.9c4.008,0,6.672-2.112,6.672-5.376S122.9,55.2,118.9,55.2Zm2.112,8.784V57.168H118.9c2.712,0,4.536,1.176,4.536,3.408s-1.824,3.408-4.536,3.408Zm18.312-4.512a5.89,5.89,0,0,0-4.152,2.184v-1.9H128.4V72h1.968V63.1a5.287,5.287,0,0,1,3.624-1.488,3.6,3.6,0,0,1,.888.1V59.5A1.589,1.589,0,0,0,134.52,59.472Zm13.152,5.856c0-3.336-1.992-5.856-5.52-5.856-3.36,0-5.952,2.352-5.952,6.312,0,3.72,2.3,6.5,6.312,6.5a10.033,10.033,0,0,0,4.464-1.032v-1.8a11.392,11.392,0,0,1-4.32,1.056,4.335,4.335,0,0,1-4.44-4.536h9.432A5.036,5.036,0,0,0,147.672,65.328Zm-5.472-4.08a3.24,3.24,0,0,1,3.432,3.144H138.36A3.792,3.792,0,0,1,142.2,61.248Zm17.952-.216a6.35,6.35,0,0,0-4.224-1.56,6.064,6.064,0,0,0-6.1,6.408,6.064,6.064,0,0,0,6.1,6.408,6.35,6.35,0,0,0,4.224-1.56V72h1.968V54h-1.968Zm-3.96,9.48a4.642,4.642,0,0,1,0-9.264,5.655,5.655,0,0,1,3.96,1.728v5.808A5.788,5.788,0,0,1,156.192,70.512ZM167.328,56.9a1.383,1.383,0,0,0,1.368-1.368,1.358,1.358,0,0,0-1.368-1.392,1.38,1.38,0,0,0,0,2.76Zm.984,15.1V59.76h-1.968V72Zm9.912.288a6.7,6.7,0,0,0,3.312-.816V69.48h-.12a5.2,5.2,0,0,1-3.144,1.032,4.633,4.633,0,1,1,0-9.264,5.2,5.2,0,0,1,3.144,1.032h.12V60.288a6.7,6.7,0,0,0-3.312-.816,6.414,6.414,0,1,0,0,12.816Zm11.256-1.776c-2.208,0-2.9-1.68-2.9-3.456V61.44h4.488V59.76h-4.488V56.3h-.288l-1.68,1.416V67.1c0,2.952,1.44,5.184,4.584,5.184a7.978,7.978,0,0,0,2.16-.288V70.248A7.5,7.5,0,0,1,189.48,70.512ZM194.9,56.9a1.383,1.383,0,0,0,1.368-1.368,1.358,1.358,0,0,0-1.368-1.392,1.38,1.38,0,0,0,0,2.76Zm.984,15.1V59.76H193.92V72Zm9.7.288a6.408,6.408,0,1,0-6.48-6.432A6.353,6.353,0,0,0,205.584,72.288Zm0-1.776a4.634,4.634,0,1,1,4.488-4.656A4.577,4.577,0,0,1,205.584,70.512Zm15.84-11.04a5.26,5.26,0,0,0-4.152,1.992v-1.7H215.3V72h1.968V63.576a4.463,4.463,0,0,1,3.72-2.328,2.789,2.789,0,0,1,2.952,3.1V72h1.944V64.344C225.888,61.224,224.04,59.472,221.424,59.472ZM251.4,55.2h-.576l-6.216,12.024L238.368,55.2h-.576L234.84,72h2.112l2.04-11.352,5.352,10.584h.5l5.352-10.56L252.264,72h2.112Zm15.408,5.832a6.35,6.35,0,0,0-4.224-1.56,6.064,6.064,0,0,0-6.1,6.408,6.064,6.064,0,0,0,6.1,6.408,6.35,6.35,0,0,0,4.224-1.56V72h1.968V59.76h-1.968Zm-3.96,9.48a4.642,4.642,0,0,1,0-9.264,5.655,5.655,0,0,1,3.96,1.728v5.808A5.788,5.788,0,0,1,262.848,70.512Zm16.272-11.04a5.89,5.89,0,0,0-4.152,2.184v-1.9H273V72h1.968V63.1a5.287,5.287,0,0,1,3.624-1.488,3.6,3.6,0,0,1,.888.1V59.5A1.589,1.589,0,0,0,279.12,59.472Zm7.824,6.144a7.589,7.589,0,0,0,4.272-5.856h-2.04a5.494,5.494,0,0,1-5.064,4.776V54h-1.968V72h1.968V65.328L289.8,72h2.3v-.288Zm17.688-.288c0-3.336-1.992-5.856-5.52-5.856-3.36,0-5.952,2.352-5.952,6.312,0,3.72,2.3,6.5,6.312,6.5a10.034,10.034,0,0,0,4.464-1.032v-1.8a11.392,11.392,0,0,1-4.32,1.056,4.335,4.335,0,0,1-4.44-4.536h9.432A5.036,5.036,0,0,0,304.632,65.328Zm-5.472-4.08a3.24,3.24,0,0,1,3.432,3.144H295.32A3.792,3.792,0,0,1,299.16,61.248Zm13.3,9.264c-2.208,0-2.9-1.68-2.9-3.456V61.44h4.488V59.76h-4.488V56.3h-.288l-1.68,1.416V67.1c0,2.952,1.44,5.184,4.584,5.184a7.978,7.978,0,0,0,2.16-.288V70.248A7.5,7.5,0,0,1,312.456,70.512Z" transform="translate(1065 6509)" fill="#fff"/>
    <g id="Group_2405" data-name="Group 2405" transform="translate(188.034 6067.736)">
      <g id="Group_2424" data-name="Group 2424">
        <g id="Group_2423" data-name="Group 2423">
          <path id="Path_2071" data-name="Path 2071" d="M1159.731,566.232a73.111,73.111,0,0,0-73.11,73.11H918.74" transform="translate(-0.817 -0.232)" fill="none" stroke="#fecc2f" stroke-width="6"/>
          <path id="Path_2072" data-name="Path 2072" d="M1159.731,872.311V712.452a73.109,73.109,0,0,0,73.11-73.11h102.435" transform="translate(-0.817 -0.554)" fill="none" stroke="#fecc2f" stroke-width="6"/>
          <circle id="Ellipse_109" data-name="Ellipse 109" cx="53.187" cy="53.187" r="53.187" transform="translate(1103.966 585.558)" fill="#fecc2f" style="mix-blend-mode: normal;isolation: isolate"/>
          <g id="Ellipse_120" data-name="Ellipse 120" transform="translate(1151.408 558.531)" fill="none" stroke="#fecc2f" stroke-width="10" style="mix-blend-mode: normal;isolation: isolate">
            <circle cx="7.507" cy="7.507" r="7.507" stroke="none"/>
            <circle cx="7.507" cy="7.507" r="2.507" fill="none"/>
          </g>
          <g id="Ellipse_121" data-name="Ellipse 121" transform="translate(1151.408 864.25)" fill="none" stroke="#fecc2f" stroke-width="10" style="mix-blend-mode: normal;isolation: isolate">
            <circle cx="7.507" cy="7.507" r="7.507" stroke="none"/>
            <circle cx="7.507" cy="7.507" r="2.507" fill="none"/>
          </g>
          <g id="Ellipse_122" data-name="Ellipse 122" transform="translate(1326.953 631.556)" fill="none" stroke="#fecc2f" stroke-width="10" style="mix-blend-mode: normal;isolation: isolate">
            <circle cx="7.507" cy="7.507" r="7.507" stroke="none"/>
            <circle cx="7.507" cy="7.507" r="2.507" fill="none"/>
          </g>
          <path id="Path_2090" data-name="Path 2090" d="M-7.238-15.4H-9.724l-4.444,7.964L-18.59-15.4h-2.486L-23.76,0h4.334l1.32-7.128L-14.5-.616h.66l3.608-6.512L-8.91,0h4.334ZM5.214-10.12a4.854,4.854,0,0,0-3.432-1.364c-3.036,0-5.368,2.31-5.368,5.874S-1.254.264,1.782.264A4.854,4.854,0,0,0,5.214-1.1V0h4.07V-11.22H5.214ZM2.882-2.948A2.536,2.536,0,0,1,.286-5.61a2.536,2.536,0,0,1,2.6-2.662,3.828,3.828,0,0,1,2.332.88v3.564A3.828,3.828,0,0,1,2.882-2.948Zm14.7-1.1-2.97-7.172H10.56V-11L15.532.176A3.147,3.147,0,0,1,13,1.5a9.377,9.377,0,0,1-1.8-.22V4.334a15.46,15.46,0,0,0,2.42.22A6.447,6.447,0,0,0,19.756.11l4.378-11.088v-.242h-4ZM-17.666,19.906c1.54-2,2.156-3.454,2.156-5.016,0-2.706-2.134-4.554-5.368-4.554a8.677,8.677,0,0,0-5.236,1.716V15.77a7.291,7.291,0,0,1,4.334-1.848c1.3,0,2.112.726,2.112,1.672,0,.88-.7,1.87-1.848,3.41l-5.214,6.424.374.572h11.4V22.414h-4.8Zm11.11,6.358c3.96,0,6.622-3.19,6.622-7.964S-2.6,10.336-6.556,10.336s-6.6,3.19-6.6,7.964S-10.516,26.264-6.556,26.264Zm0-3.586c-1.65,0-2.618-1.694-2.64-4.378.022-2.684.99-4.378,2.64-4.378,1.694,0,2.684,1.694,2.684,4.378S-4.862,22.678-6.556,22.678ZM10.45,19.906c1.54-2,2.156-3.454,2.156-5.016,0-2.706-2.134-4.554-5.368-4.554A8.677,8.677,0,0,0,2,12.052V15.77a7.291,7.291,0,0,1,4.334-1.848c1.3,0,2.112.726,2.112,1.672,0,.88-.7,1.87-1.848,3.41L1.386,25.428,1.76,26h11.4V22.414H8.36Zm13.156,0c1.54-2,2.156-3.454,2.156-5.016,0-2.706-2.134-4.554-5.368-4.554a8.677,8.677,0,0,0-5.236,1.716V15.77a7.291,7.291,0,0,1,4.334-1.848c1.3,0,2.112.726,2.112,1.672,0,.88-.7,1.87-1.848,3.41l-5.214,6.424.374.572h11.4V22.414h-4.8Z" transform="translate(1156.966 633.264)" fill="#00082a"/>
        </g>
        <g id="Group_2422" data-name="Group 2422">
          <path id="Path_2069" data-name="Path 2069" d="M598.43,639.342H772.52a73.111,73.111,0,0,1,73.11-73.11V400.77" transform="translate(-0.436)" fill="none" stroke="#ff416c" stroke-width="6"/>
          <path id="Path_2070" data-name="Path 2070" d="M845.63,712.452a73.109,73.109,0,0,0,73.11-73.11" transform="translate(-0.538 -0.33)" fill="none" stroke="#ff416c" stroke-width="6"/>
          <circle id="Ellipse_108" data-name="Ellipse 108" cx="53.187" cy="53.187" r="53.187" transform="translate(792.966 585.558)" fill="#ff416c" style="mix-blend-mode: normal;isolation: isolate"/>
          <g id="Ellipse_117" data-name="Ellipse 117" transform="translate(837.615 393.264)" fill="none" stroke="#ff416c" stroke-width="10" style="mix-blend-mode: normal;isolation: isolate">
            <circle cx="7.507" cy="7.507" r="7.507" stroke="none"/>
            <circle cx="7.507" cy="7.507" r="2.507" fill="none"/>
          </g>
          <g id="Ellipse_118" data-name="Ellipse 118" transform="translate(839.041 704.58)" fill="none" stroke="#ff416c" stroke-width="10" style="mix-blend-mode: normal;isolation: isolate">
            <circle cx="7.507" cy="7.507" r="7.507" stroke="none"/>
            <circle cx="7.507" cy="7.507" r="2.507" fill="none"/>
          </g>
          <g id="Ellipse_119" data-name="Ellipse 119" transform="translate(910.679 631.556)" fill="none" stroke="#ff416c" stroke-width="10" style="mix-blend-mode: normal;isolation: isolate">
            <circle cx="7.507" cy="7.507" r="7.507" stroke="none"/>
            <circle cx="7.507" cy="7.507" r="2.507" fill="none"/>
          </g>
          <path id="Path_2089" data-name="Path 2089" d="M-5.159-15.4H-7.645l-4.444,7.964L-16.511-15.4H-19L-21.681,0h4.334l1.32-7.128,3.608,6.512h.66l3.608-6.512L-6.831,0H-2.5ZM7.293-10.12a4.854,4.854,0,0,0-3.432-1.364c-3.036,0-5.368,2.31-5.368,5.874S.825.264,3.861.264A4.854,4.854,0,0,0,7.293-1.1V0h4.07V-11.22H7.293ZM4.961-2.948a2.536,2.536,0,0,1-2.6-2.662,2.536,2.536,0,0,1,2.6-2.662,3.828,3.828,0,0,1,2.332.88v3.564A3.828,3.828,0,0,1,4.961-2.948Zm16.434-8.536a4.442,4.442,0,0,0-3.476,2.4V-11.22H13.871V0h4.048V-6.842a5.155,5.155,0,0,1,2.508-.616,4.632,4.632,0,0,1,1.408.2v-4.18A2.269,2.269,0,0,0,21.395-11.484Zm-39.061,31.39c1.54-2,2.156-3.454,2.156-5.016,0-2.706-2.134-4.554-5.368-4.554a8.677,8.677,0,0,0-5.236,1.716V15.77a7.291,7.291,0,0,1,4.334-1.848c1.3,0,2.112.726,2.112,1.672,0,.88-.7,1.87-1.848,3.41l-5.214,6.424.374.572h11.4V22.414h-4.8Zm11.11,6.358c3.96,0,6.622-3.19,6.622-7.964S-2.6,10.336-6.556,10.336s-6.6,3.19-6.6,7.964S-10.516,26.264-6.556,26.264Zm0-3.586c-1.65,0-2.618-1.694-2.64-4.378.022-2.684.99-4.378,2.64-4.378,1.694,0,2.684,1.694,2.684,4.378S-4.862,22.678-6.556,22.678ZM10.45,19.906c1.54-2,2.156-3.454,2.156-5.016,0-2.706-2.134-4.554-5.368-4.554A8.677,8.677,0,0,0,2,12.052V15.77a7.291,7.291,0,0,1,4.334-1.848c1.3,0,2.112.726,2.112,1.672,0,.88-.7,1.87-1.848,3.41L1.386,25.428,1.76,26h11.4V22.414H8.36Zm13.156,0c1.54-2,2.156-3.454,2.156-5.016,0-2.706-2.134-4.554-5.368-4.554a8.677,8.677,0,0,0-5.236,1.716V15.77a7.291,7.291,0,0,1,4.334-1.848c1.3,0,2.112.726,2.112,1.672,0,.88-.7,1.87-1.848,3.41l-5.214,6.424.374.572h11.4V22.414h-4.8Z" transform="translate(845.966 633.264)" fill="#fff"/>
        </g>
        <g id="Group_2421" data-name="Group 2421">
          <path id="Path_2067" data-name="Path 2067" d="M525.32,566.232a73.111,73.111,0,0,0-73.11,73.11h-168.7" transform="translate(-0.195 -0.232)" fill="none" stroke="#61f7d0" stroke-width="6"/>
          <path id="Path_2068" data-name="Path 2068" d="M598.43,639.342a73.109,73.109,0,0,1-73.11,73.11V872.311" transform="translate(-0.327 -0.554)" fill="none" stroke="#61f7d0" stroke-width="6"/>
          <circle id="Ellipse_107" data-name="Ellipse 107" cx="53.187" cy="53.187" r="53.187" transform="translate(476.966 586.264)" fill="#61f7d0" style="mix-blend-mode: normal;isolation: isolate"/>
          <g id="Ellipse_114" data-name="Ellipse 114" transform="translate(517.506 558.531)" fill="none" stroke="#61f7d0" stroke-width="10" style="mix-blend-mode: normal;isolation: isolate">
            <circle cx="7.507" cy="7.507" r="7.507" stroke="none"/>
            <circle cx="7.507" cy="7.507" r="2.507" fill="none"/>
          </g>
          <g id="Ellipse_115" data-name="Ellipse 115" transform="translate(517.506 864.25)" fill="none" stroke="#61f7d0" stroke-width="10" style="mix-blend-mode: normal;isolation: isolate">
            <circle cx="7.507" cy="7.507" r="7.507" stroke="none"/>
            <circle cx="7.507" cy="7.507" r="2.507" fill="none"/>
          </g>
          <g id="Ellipse_116" data-name="Ellipse 116" transform="translate(590.57 631.556)" fill="none" stroke="#61f7d0" stroke-width="10" style="mix-blend-mode: normal;isolation: isolate">
            <circle cx="7.507" cy="7.507" r="7.507" stroke="none"/>
            <circle cx="7.507" cy="7.507" r="2.507" fill="none"/>
          </g>
          <path id="Path_2091" data-name="Path 2091" d="M-16.577-11.638h4.07v5.61A2.233,2.233,0,0,1-14.8-3.63a2.222,2.222,0,0,1-2.354-2.376v-.968h-4.114v1.122C-21.263-2.2-18.6.264-14.707.264A6.336,6.336,0,0,0-8.173-6.424V-15.4h-8.4ZM2.343-10.12a4.854,4.854,0,0,0-3.432-1.364c-3.036,0-5.368,2.31-5.368,5.874S-4.125.264-1.089.264A4.854,4.854,0,0,0,2.343-1.1V0h4.07V-11.22H2.343ZM.011-2.948a2.536,2.536,0,0,1-2.6-2.662,2.536,2.536,0,0,1,2.6-2.662,3.828,3.828,0,0,1,2.332.88v3.564A3.828,3.828,0,0,1,.011-2.948Zm16.412-8.536a4.743,4.743,0,0,0-3.454,1.54V-11.22H8.921V0h4.048V-7.238A2.792,2.792,0,0,1,14.883-8.1c.968,0,1.628.682,1.628,1.87V0h4.048V-7.106C20.559-10.12,18.689-11.484,16.423-11.484Zm-34.089,31.39c1.54-2,2.156-3.454,2.156-5.016,0-2.706-2.134-4.554-5.368-4.554a8.677,8.677,0,0,0-5.236,1.716V15.77a7.291,7.291,0,0,1,4.334-1.848c1.3,0,2.112.726,2.112,1.672,0,.88-.7,1.87-1.848,3.41l-5.214,6.424.374.572h11.4V22.414h-4.8Zm11.11,6.358c3.96,0,6.622-3.19,6.622-7.964S-2.6,10.336-6.556,10.336s-6.6,3.19-6.6,7.964S-10.516,26.264-6.556,26.264Zm0-3.586c-1.65,0-2.618-1.694-2.64-4.378.022-2.684.99-4.378,2.64-4.378,1.694,0,2.684,1.694,2.684,4.378S-4.862,22.678-6.556,22.678ZM10.45,19.906c1.54-2,2.156-3.454,2.156-5.016,0-2.706-2.134-4.554-5.368-4.554A8.677,8.677,0,0,0,2,12.052V15.77a7.291,7.291,0,0,1,4.334-1.848c1.3,0,2.112.726,2.112,1.672,0,.88-.7,1.87-1.848,3.41L1.386,25.428,1.76,26h11.4V22.414H8.36Zm13.156,0c1.54-2,2.156-3.454,2.156-5.016,0-2.706-2.134-4.554-5.368-4.554a8.677,8.677,0,0,0-5.236,1.716V15.77a7.291,7.291,0,0,1,4.334-1.848c1.3,0,2.112.726,2.112,1.672,0,.88-.7,1.87-1.848,3.41l-5.214,6.424.374.572h11.4V22.414h-4.8Z" transform="translate(529.966 633.264)" fill="#010929"/>
        </g>
        <g id="Group_2420" data-name="Group 2420">
          <path id="Path_2065" data-name="Path 2065" d="M35.473,639.342H137.287a73.111,73.111,0,0,1,73.11-73.11V401.616" fill="none" stroke="#ff4b2b" stroke-width="6" style="mix-blend-mode: normal;isolation: isolate"/>
          <path id="Path_2066" data-name="Path 2066" d="M210.4,712.452a73.109,73.109,0,0,0,73.11-73.11" transform="translate(0 -0.33)" fill="none" stroke="#ff4b2b" stroke-width="6" style="mix-blend-mode: normal;isolation: isolate"/>
          <circle id="Ellipse_106" data-name="Ellipse 106" cx="53.187" cy="53.187" r="53.187" transform="translate(156.966 586.264)" fill="#ff4b2b" style="mix-blend-mode: normal;isolation: isolate"/>
          <g id="Ellipse_110" data-name="Ellipse 110" transform="translate(27.966 631.556)" fill="none" stroke="#fd4b2a" stroke-width="10" style="mix-blend-mode: normal;isolation: isolate">
            <circle cx="7.507" cy="7.507" r="7.507" stroke="none"/>
            <circle cx="7.507" cy="7.507" r="2.507" fill="none"/>
          </g>
          <g id="Ellipse_111" data-name="Ellipse 111" transform="translate(202.891 394.109)" fill="none" stroke="#fd4b2a" stroke-width="10" style="mix-blend-mode: normal;isolation: isolate">
            <circle cx="7.507" cy="7.507" r="7.507" stroke="none"/>
            <circle cx="7.507" cy="7.507" r="2.507" fill="none"/>
          </g>
          <g id="Ellipse_112" data-name="Ellipse 112" transform="translate(202.891 704.58)" fill="none" stroke="#fd4b2a" stroke-width="10" style="mix-blend-mode: normal;isolation: isolate">
            <circle cx="7.507" cy="7.507" r="7.507" stroke="none"/>
            <circle cx="7.507" cy="7.507" r="2.507" fill="none"/>
          </g>
          <g id="Ellipse_113" data-name="Ellipse 113" transform="translate(275.845 631.556)" fill="none" stroke="#fd4b2a" stroke-width="10" style="mix-blend-mode: normal;isolation: isolate">
            <circle cx="7.507" cy="7.507" r="7.507" stroke="none"/>
            <circle cx="7.507" cy="7.507" r="2.507" fill="none"/>
          </g>
          <path id="Path_2092" data-name="Path 2092" d="M-10.725-7.788-19.459-15.4h-.726V0h4.334V-7.194L-7.161,0h.77V-15.4h-4.334ZM1.749.264c3.476,0,6.27-2.376,6.27-5.874s-2.794-5.874-6.292-5.874c-3.454,0-6.248,2.376-6.248,5.874S-1.727.264,1.749.264Zm0-3.432A2.347,2.347,0,0,1-.649-5.61a2.347,2.347,0,0,1,2.4-2.442,2.347,2.347,0,0,1,2.4,2.442A2.347,2.347,0,0,1,1.749-3.168ZM14.817-5.7,12.375-11.22h-4.4v.242L13.717,0h2.2l5.72-10.978v-.242H17.215Zm-30.338,25.6c1.54-2,2.156-3.454,2.156-5.016,0-2.706-2.134-4.554-5.368-4.554a8.677,8.677,0,0,0-5.236,1.716V15.77a7.291,7.291,0,0,1,4.334-1.848c1.3,0,2.112.726,2.112,1.672,0,.88-.7,1.87-1.848,3.41l-5.214,6.424.374.572h11.4V22.414h-4.8Zm11.11,6.358c3.96,0,6.622-3.19,6.622-7.964s-2.662-7.964-6.622-7.964-6.6,3.19-6.6,7.964S-8.371,26.264-4.411,26.264Zm0-3.586c-1.65,0-2.618-1.694-2.64-4.378.022-2.684.99-4.378,2.64-4.378,1.694,0,2.684,1.694,2.684,4.378S-2.717,22.678-4.411,22.678Zm17.006-2.772c1.54-2,2.156-3.454,2.156-5.016,0-2.706-2.134-4.554-5.368-4.554a8.677,8.677,0,0,0-5.236,1.716V15.77a7.291,7.291,0,0,1,4.334-1.848c1.3,0,2.112.726,2.112,1.672,0,.88-.7,1.87-1.848,3.41L3.531,25.428,3.9,26H15.3V22.414H10.5Zm4.092-5.852h2.97V26h3.85V10.6h-6.82Z" transform="translate(209.966 634.264)" fill="#fff"/>
        </g>
      </g>
    </g>
  </g>
</svg>
