<svg xmlns="http://www.w3.org/2000/svg" xmlns:xlink="http://www.w3.org/1999/xlink" width="300" height="300" viewBox="0 0 300 300">
  <defs>
    <clipPath id="clip-path">
      <path id="Path_2076" data-name="Path 2076" d="M108.619,181.352l7.655-18.558,43.421-36.29-4.951-20.929-8.737-12.64L133,87.129l-15.957-5.708L98.457,83.864,87.126,92.936,71.819,113.85,72.976,141.4s14.08,15.917,14.15,16.417,17.857,13.421,17.857,13.421Z" transform="translate(565.044 47.708)" fill="#fff"/>
    </clipPath>
  </defs>
  <g id="Group_1066" data-name="Group 1066" transform="translate(-506.929)">
    <g id="Group_1007" data-name="Group 1007" transform="translate(725.321)">
      <g id="Group_1000" data-name="Group 1000" transform="translate(9.723)">
        <g id="Group_999" data-name="Group 999">
          <rect id="Rectangle_140" data-name="Rectangle 140" width="3.185" height="6.026" rx="1.592" fill="#61f7d0"/>
        </g>
      </g>
      <g id="Group_1002" data-name="Group 1002" transform="translate(9.723 16.603)">
        <g id="Group_1001" data-name="Group 1001">
          <rect id="Rectangle_141" data-name="Rectangle 141" width="3.185" height="6.027" rx="1.592" fill="#61f7d0"/>
        </g>
      </g>
      <g id="Group_1004" data-name="Group 1004" transform="translate(16.603 9.723)">
        <g id="Group_1003" data-name="Group 1003">
          <rect id="Rectangle_142" data-name="Rectangle 142" width="6.026" height="3.185" rx="1.592" fill="#61f7d0"/>
        </g>
      </g>
      <g id="Group_1006" data-name="Group 1006" transform="translate(0 9.723)">
        <g id="Group_1005" data-name="Group 1005">
          <rect id="Rectangle_143" data-name="Rectangle 143" width="6.026" height="3.185" rx="1.592" fill="#61f7d0"/>
        </g>
      </g>
    </g>
    <g id="Group_1016" data-name="Group 1016" transform="translate(532.701 227.966)">
      <g id="Group_1009" data-name="Group 1009" transform="translate(9.722)">
        <g id="Group_1008" data-name="Group 1008">
          <rect id="Rectangle_144" data-name="Rectangle 144" width="3.185" height="6.026" rx="1.593" fill="#61f7d0"/>
        </g>
      </g>
      <g id="Group_1011" data-name="Group 1011" transform="translate(9.722 16.604)">
        <g id="Group_1010" data-name="Group 1010">
          <rect id="Rectangle_145" data-name="Rectangle 145" width="3.185" height="6.026" rx="1.593" fill="#61f7d0"/>
        </g>
      </g>
      <g id="Group_1013" data-name="Group 1013" transform="translate(16.603 9.721)">
        <g id="Group_1012" data-name="Group 1012">
          <rect id="Rectangle_146" data-name="Rectangle 146" width="6.026" height="3.185" rx="1.593" fill="#61f7d0"/>
        </g>
      </g>
      <g id="Group_1015" data-name="Group 1015" transform="translate(0 9.721)">
        <g id="Group_1014" data-name="Group 1014">
          <rect id="Rectangle_147" data-name="Rectangle 147" width="6.026" height="3.185" rx="1.593" fill="#61f7d0"/>
        </g>
      </g>
    </g>
    <g id="Group_1018" data-name="Group 1018" transform="translate(580.013 22.63)">
      <g id="Group_1017" data-name="Group 1017" transform="translate(0)">
        <path id="Path_1197" data-name="Path 1197" d="M613.288,34.63a4.457,4.457,0,1,1-4.456-4.456A4.457,4.457,0,0,1,613.288,34.63Z" transform="translate(-604.374 -30.174)" fill="#fd4b2a"/>
      </g>
    </g>
    <g id="Group_1020" data-name="Group 1020" transform="translate(507.683 117.994)">
      <g id="Group_1019" data-name="Group 1019">
        <path id="Path_1198" data-name="Path 1198" d="M528.2,167.46a10.134,10.134,0,1,1-10.135-10.135A10.135,10.135,0,0,1,528.2,167.46Z" transform="translate(-507.934 -157.325)" fill="#ff4b2b"/>
      </g>
    </g>
    <g id="Group_1035" data-name="Group 1035" transform="translate(506.929 35.153)" opacity="0.1">
      <g id="Group_1022" data-name="Group 1022" transform="translate(13.004 7.017)">
        <g id="Group_1021" data-name="Group 1021">
          <path id="Path_1199" data-name="Path 1199" d="M610.424,61.878l61.733,34.877-23.407,30.4L590.37,82.2S561.084,67.356,532.9,75.372l-8.636-6.649S572.6,45.963,610.424,61.878Z" transform="translate(-524.267 -56.228)" fill="#fff"/>
        </g>
      </g>
      <g id="Group_1024" data-name="Group 1024" transform="translate(0 45.183)">
        <g id="Group_1023" data-name="Group 1023">
          <path id="Path_1200" data-name="Path 1200" d="M525.194,228.691l84.037-109.143-16.149-12.433L509.046,216.258a10.191,10.191,0,0,0,1.858,14.291h0A10.189,10.189,0,0,0,525.194,228.691Z" transform="translate(-506.929 -107.115)" fill="#fff"/>
        </g>
      </g>
      <g id="Group_1026" data-name="Group 1026" transform="translate(110.846)">
        <g id="Group_1025" data-name="Group 1025">
          <path id="Path_1201" data-name="Path 1201" d="M680.969,59.305,664.821,46.871l-10.1,13.113,17.929,10.122Z" transform="translate(-654.724 -46.871)" fill="#fff"/>
        </g>
      </g>
    </g>
    <g id="Mask_Group_3" data-name="Mask Group 3" clip-path="url(#clip-path)">
      <path id="Path_1" data-name="Path 1" d="M746.068,214.005a4.4,4.4,0,0,1-4.4,4.384H717.883l23.645,36.638a38.746,38.746,0,0,1-5.675,1.471l-24.594-38.11H698.14l24.691,38.254a38.734,38.734,0,0,1-32.313-44.232q.219-1.4.54-2.789H741.67A4.394,4.394,0,0,1,746.068,214.005Zm-17.158-34.342a38.857,38.857,0,0,0-33.421,18.964h46.181a15.379,15.379,0,1,1,0,30.758H738.1l13.292,20.6a38.7,38.7,0,0,0-22.478-70.318Z" transform="translate(-45.78 -44.916)" fill="#ff416c"/>
    </g>
    <g id="Group_1060" data-name="Group 1060" transform="translate(565.044 47.708)">
      <g id="Group_1041" data-name="Group 1041" transform="translate(12.635 1.536)">
        <g id="Group_1040" data-name="Group 1040">
          <path id="Path_1208" data-name="Path 1208" d="M606.307,316.415h-5.044l48.784-70.467,40.387,9.121,12.755-28.938,44.336-38.123,18.059-89.022,64.93-33.327V316.415h-4.147V72.451l-57.114,29.314-17.946,88.462-44.7,38.438-13.753,31.2-40.988-9.256Z" transform="translate(-601.262 -65.66)" fill="#1b223f"/>
        </g>
      </g>
      <g id="Group_1043" data-name="Group 1043" transform="translate(169.493 43.942)" opacity="0.15">
        <g id="Group_1042" data-name="Group 1042">
          <path id="Path_1209" data-name="Path 1209" d="M826.566,122.2l-16.159,81.833,22.357-26.951Z" transform="translate(-810.407 -122.201)" fill="#fff"/>
        </g>
      </g>
      <g id="Group_1045" data-name="Group 1045" transform="translate(66.828 138.479)" opacity="0.2">
        <g id="Group_1044" data-name="Group 1044">
          <path id="Path_1210" data-name="Path 1210" d="M731.026,277.339l-14.344,36.182L673.519,304.8l46.8,26.5,20.422-27.736,4.267-27.128,19.981-28.179Z" transform="translate(-673.519 -248.25)" fill="#fff"/>
        </g>
      </g>
      <g id="Group_1047" data-name="Group 1047" transform="translate(174.885 138.479)" opacity="0.3">
        <g id="Group_1046" data-name="Group 1046">
          <path id="Path_1211" data-name="Path 1211" d="M864.553,311.391c-1.984,0-20.5-63.141-20.5-63.141l-5.289,41.521L817.6,331.294l28.717-23.027Z" transform="translate(-817.596 -248.25)" fill="#fff"/>
        </g>
      </g>
      <g id="Group_1049" data-name="Group 1049" transform="translate(35.049 195.026)" opacity="0.2">
        <g id="Group_1048" data-name="Group 1048" transform="translate(0 0)">
          <path id="Path_1212" data-name="Path 1212" d="M662.926,323.646l-31.779,45.778,51.972-34.345Z" transform="translate(-631.147 -323.646)" fill="#fff"/>
        </g>
      </g>
      <g id="Group_1051" data-name="Group 1051" transform="translate(211.672 38.667)" opacity="0.2">
        <g id="Group_1050" data-name="Group 1050">
          <path id="Path_1213" data-name="Path 1213" d="M866.644,211.911V168.735l19.988-53.568v50.771Z" transform="translate(-866.644 -115.167)" fill="#fff"/>
        </g>
      </g>
      <g id="Group_1053" data-name="Group 1053" transform="translate(64.76 72.812)">
        <g id="Group_1052" data-name="Group 1052">
          <path id="Path_1214" data-name="Path 1214" d="M717.843,266.326l-1.553-.218A52.97,52.97,0,1,1,772.547,193.1l.247.589-4.108,20.3-44.708,38.438Zm5.881-101.485a48.824,48.824,0,0,0-8.4,96.918l5.237-11.869,44.34-38.123,3.571-17.641A48.7,48.7,0,0,0,723.724,164.841Z" transform="translate(-670.762 -160.694)" fill="#1b223f"/>
        </g>
      </g>
      <g id="Group_1055" data-name="Group 1055" transform="translate(0 149.811)" opacity="0.2">
        <g id="Group_1054" data-name="Group 1054" transform="translate(0 0)">
          <path id="Path_1215" data-name="Path 1215" d="M637.7,263.36l-53.282,8.4,6.281,16.179Z" transform="translate(-584.416 -263.36)" fill="#fff"/>
        </g>
      </g>
      <g id="Group_1057" data-name="Group 1057" transform="translate(143.523)" opacity="0.15">
        <g id="Group_1056" data-name="Group 1056">
          <path id="Path_1216" data-name="Path 1216" d="M775.78,113.029,800.827,69.4l-15.479-5.792Z" transform="translate(-775.78 -63.611)" fill="#fff"/>
        </g>
      </g>
      <g id="Group_1059" data-name="Group 1059" transform="translate(97.908 11.606)" opacity="0.07">
        <g id="Group_1058" data-name="Group 1058">
          <path id="Path_1217" data-name="Path 1217" d="M730.737,105.29l.935-26.2L714.96,85.215Z" transform="translate(-714.96 -79.085)" fill="#fff"/>
        </g>
      </g>
    </g>
  </g>
</svg>
