<svg xmlns="http://www.w3.org/2000/svg" width="300" height="300" viewBox="0 0 300 300">
  <g id="Group_1065" data-name="Group 1065" transform="translate(-941.342)">
    <g id="Group_964" data-name="Group 964" transform="translate(959.527 18.184)">
      <g id="Group_889" data-name="Group 889" transform="translate(94.462 93.583)">
        <g id="Group_888" data-name="Group 888">
          <path id="Path_1168" data-name="Path 1168" d="M1166.245,186.377a37.354,37.354,0,1,1-37.355-37.355A37.355,37.355,0,0,1,1166.245,186.377Z" transform="translate(-1091.537 -149.022)" fill="#ff416c"/>
        </g>
      </g>
      <g id="Group_896" data-name="Group 896" transform="translate(120.51 33.131)" opacity="0.4">
        <g id="Group_893" data-name="Group 893" transform="translate(9.353 0)">
          <g id="Group_892" data-name="Group 892">
            <rect id="Rectangle_120" data-name="Rectangle 120" width="3.904" height="30.524" fill="#fff"/>
          </g>
        </g>
        <g id="Group_895" data-name="Group 895" transform="translate(0 20.424)">
          <g id="Group_894" data-name="Group 894">
            <path id="Path_1170" data-name="Path 1170" d="M1137.573,111.983l-11.3-13.867,3.025-2.465,8.28,10.154,8.281-10.154,3.024,2.465Z" transform="translate(-1126.268 -95.652)" fill="#fff"/>
          </g>
        </g>
      </g>
      <g id="Group_901" data-name="Group 901" transform="translate(120.51 192.721)" opacity="0.4">
        <g id="Group_898" data-name="Group 898" transform="translate(9.353 6.232)">
          <g id="Group_897" data-name="Group 897">
            <rect id="Rectangle_121" data-name="Rectangle 121" width="3.904" height="30.525" fill="#fff"/>
          </g>
        </g>
        <g id="Group_900" data-name="Group 900">
          <g id="Group_899" data-name="Group 899">
            <path id="Path_1171" data-name="Path 1171" d="M1145.854,297.54l-8.281-10.154-8.28,10.154-3.025-2.466,11.3-13.867,11.306,13.867Z" transform="translate(-1126.268 -281.207)" fill="#fff"/>
          </g>
        </g>
      </g>
      <g id="Group_910" data-name="Group 910" transform="translate(193.745 120.512)" opacity="0.4">
        <g id="Group_907" data-name="Group 907" transform="translate(6.232 9.353)">
          <g id="Group_906" data-name="Group 906">
            <rect id="Rectangle_122" data-name="Rectangle 122" width="30.525" height="3.904" fill="#fff"/>
          </g>
        </g>
        <g id="Group_909" data-name="Group 909">
          <g id="Group_908" data-name="Group 908">
            <path id="Path_1174" data-name="Path 1174" d="M1237.781,207.537l-13.867-11.306,13.867-11.3,2.468,3.024-10.156,8.28,10.156,8.28Z" transform="translate(-1223.915 -184.927)" fill="#fff"/>
          </g>
        </g>
      </g>
      <g id="Group_915" data-name="Group 915" transform="translate(34.153 120.512)" opacity="0.4">
        <g id="Group_912" data-name="Group 912" transform="translate(0 9.353)">
          <g id="Group_911" data-name="Group 911">
            <rect id="Rectangle_123" data-name="Rectangle 123" width="30.524" height="3.904" fill="#fff"/>
          </g>
        </g>
        <g id="Group_914" data-name="Group 914" transform="translate(20.423)">
          <g id="Group_913" data-name="Group 913">
            <path id="Path_1175" data-name="Path 1175" d="M1040.824,207.537l-2.468-3.025,10.156-8.28-10.156-8.28,2.468-3.024,13.867,11.3Z" transform="translate(-1038.356 -184.927)" fill="#fff"/>
          </g>
        </g>
      </g>
      <g id="Group_924" data-name="Group 924" transform="translate(175.605 60.653)" opacity="0.4">
        <g id="Group_921" data-name="Group 921" transform="translate(3.027)">
          <g id="Group_920" data-name="Group 920">
            <rect id="Rectangle_124" data-name="Rectangle 124" width="30.527" height="3.904" transform="translate(0 21.586) rotate(-45)" fill="#fff"/>
          </g>
        </g>
        <g id="Group_923" data-name="Group 923" transform="translate(0 9.572)">
          <g id="Group_922" data-name="Group 922">
            <path id="Path_1178" data-name="Path 1178" d="M1199.729,135.677l1.812-17.8,3.883.4-1.327,13.035,13.035-1.327.394,3.883Z" transform="translate(-1199.729 -117.879)" fill="#fff"/>
          </g>
        </g>
      </g>
      <g id="Group_929" data-name="Group 929" transform="translate(61.379 174.884)" opacity="0.4">
        <g id="Group_926" data-name="Group 926" transform="translate(0 3.025)">
          <g id="Group_925" data-name="Group 925">
            <rect id="Rectangle_125" data-name="Rectangle 125" width="30.525" height="3.904" transform="translate(0 21.585) rotate(-45)" fill="#fff"/>
          </g>
        </g>
        <g id="Group_928" data-name="Group 928" transform="translate(9.572)">
          <g id="Group_927" data-name="Group 927">
            <path id="Path_1179" data-name="Path 1179" d="M1076.176,275.223l-3.883-.4,1.326-13.036-13.036,1.327-.393-3.883,17.8-1.81Z" transform="translate(-1060.189 -257.424)" fill="#fff"/>
          </g>
        </g>
      </g>
      <g id="Group_938" data-name="Group 938" transform="translate(175.605 175.606)" opacity="0.4">
        <g id="Group_935" data-name="Group 935" transform="translate(3.027 3.027)">
          <g id="Group_934" data-name="Group 934">
            <rect id="Rectangle_126" data-name="Rectangle 126" width="3.904" height="30.525" transform="matrix(0.707, -0.707, 0.707, 0.707, 0, 2.761)" fill="#fff"/>
          </g>
        </g>
        <g id="Group_937" data-name="Group 937">
          <g id="Group_936" data-name="Group 936">
            <path id="Path_1182" data-name="Path 1182" d="M1201.541,276.188l-1.812-17.8,17.8,1.812-.394,3.883-13.038-1.327,1.327,13.036Z" transform="translate(-1199.729 -258.386)" fill="#fff"/>
          </g>
        </g>
      </g>
      <g id="Group_943" data-name="Group 943" transform="translate(61.38 61.378)" opacity="0.4">
        <g id="Group_940" data-name="Group 940">
          <g id="Group_939" data-name="Group 939">
            <rect id="Rectangle_127" data-name="Rectangle 127" width="3.904" height="30.525" transform="translate(0 2.76) rotate(-44.996)" fill="#fff"/>
          </g>
        </g>
        <g id="Group_942" data-name="Group 942" transform="translate(9.571 9.572)">
          <g id="Group_941" data-name="Group 941">
            <path id="Path_1183" data-name="Path 1183" d="M1077.989,136.643l-17.8-1.81.393-3.883,13.036,1.327-1.326-13.035,3.883-.4Z" transform="translate(-1060.189 -118.845)" fill="#fff"/>
          </g>
        </g>
      </g>
      <circle id="Ellipse_126" data-name="Ellipse 126" cx="119" cy="119" r="119" transform="translate(12.816 11.816)" fill="none" stroke="#fff" stroke-width="4" opacity="0.1"/>
      <g id="Circles">
        <g id="Group_903" data-name="Group 903" transform="translate(118.467)">
          <g id="Group_902" data-name="Group 902">
            <g id="Path_1172" data-name="Path 1172" transform="translate(-1123.544 -24.245)" fill="#1b223f">
              <path d="M 1136.891723632812 55.94426345825195 C 1134.416748046875 55.94426345825195 1132.013305664062 55.45835494995117 1129.747924804688 54.50003433227539 C 1127.5625 53.57554626464844 1125.600830078125 52.25314331054688 1123.91748046875 50.56956481933594 C 1122.234130859375 48.88612365722656 1120.911987304688 46.92447662353516 1119.98779296875 44.7391242980957 C 1119.029663085938 42.47401428222656 1118.5439453125 40.07088470458984 1118.5439453125 37.59650421142578 C 1118.5439453125 35.1215934753418 1119.029663085938 32.71801376342773 1119.987548828125 30.45254516601562 C 1120.911743164062 28.26670455932617 1122.233764648438 26.30464553833008 1123.9169921875 24.6208553314209 C 1125.600463867188 22.93690490722656 1127.562133789062 21.61420440673828 1129.74755859375 20.68951416015625 C 1132.013061523438 19.73100471496582 1134.416625976562 19.24500465393066 1136.891723632812 19.24500465393066 C 1139.367065429688 19.24500465393066 1141.77099609375 19.73096466064453 1144.03662109375 20.68939590454102 C 1146.222412109375 21.61403465270996 1148.184326171875 22.93668556213379 1149.867797851562 24.62060546875 C 1151.55126953125 26.30438423156738 1152.87353515625 28.26646423339844 1153.7978515625 30.45234489440918 C 1154.755981445312 32.71786499023438 1155.24169921875 35.12150573730469 1155.24169921875 37.59650421142578 C 1155.24169921875 40.07097625732422 1154.755859375 42.47416687011719 1153.797729492188 44.73932647705078 C 1152.873291015625 46.92472457885742 1151.550903320312 48.88638687133789 1149.867431640625 50.56982421875 C 1148.183837890625 52.25336456298828 1146.221923828125 53.57571411132812 1144.036254882812 54.50015640258789 C 1141.770751953125 55.45839691162109 1139.366943359375 55.94426345825195 1136.891723632812 55.94426345825195 Z" stroke="none"/>
              <path d="M 1136.891723632812 50.94426345825195 C 1144.265747070312 50.94426345825195 1150.24169921875 44.96675491333008 1150.24169921875 37.59650039672852 C 1150.24169921875 30.2232608795166 1144.265747070312 24.24500846862793 1136.891723632812 24.24500846862793 C 1129.519287109375 24.24500846862793 1123.5439453125 30.2232608795166 1123.5439453125 37.59650039672852 C 1123.5439453125 44.96675491333008 1129.519287109375 50.94426345825195 1136.891723632812 50.94426345825195 M 1136.891723632812 60.94426345825195 C 1124.017700195312 60.94426345825195 1113.5439453125 50.47050094604492 1113.5439453125 37.59650039672852 C 1113.5439453125 24.7204475402832 1124.017700195312 14.24500846862793 1136.891723632812 14.24500846862793 C 1149.766967773438 14.24500846862793 1160.24169921875 24.7204475402832 1160.24169921875 37.59650039672852 C 1160.24169921875 50.47050094604492 1149.766967773438 60.94426345825195 1136.891723632812 60.94426345825195 Z" stroke="none" fill="#010929"/>
            </g>
          </g>
        </g>
        <g id="Group_905" data-name="Group 905" transform="translate(118.467 236.933)">
          <g id="Group_904" data-name="Group 904">
            <g id="Path_1173" data-name="Path 1173" transform="translate(-1123.544 -340.156)" fill="#1b223f">
              <path d="M 1136.891723632812 371.8552551269531 C 1134.416625976562 371.8552551269531 1132.013061523438 371.3692626953125 1129.747680664062 370.4107666015625 C 1127.562133789062 369.4861145019531 1125.600463867188 368.1634521484375 1123.917114257812 366.4795837402344 C 1122.23388671875 364.7958679199219 1120.911743164062 362.8338623046875 1119.987548828125 360.6481628417969 C 1119.029663085938 358.3827514648438 1118.5439453125 355.9792785644531 1118.5439453125 353.5045166015625 C 1118.5439453125 351.0299987792969 1119.029663085938 348.6267700195312 1119.987670898438 346.361572265625 C 1120.911987304688 344.1761169433594 1122.234130859375 342.2143859863281 1123.917358398438 340.5308532714844 C 1125.600708007812 338.8472290039062 1127.562377929688 337.5247802734375 1129.747802734375 336.6002502441406 C 1132.01318359375 335.6419372558594 1134.416748046875 335.156005859375 1136.891723632812 335.156005859375 C 1139.366943359375 335.156005859375 1141.770751953125 335.6418762207031 1144.036376953125 336.6001281738281 C 1146.222045898438 337.5245971679688 1148.183959960938 338.8470153808594 1149.867553710938 340.5306091308594 C 1151.551025390625 342.214111328125 1152.873291015625 344.1758728027344 1153.797729492188 346.3613586425781 C 1154.755859375 348.6266174316406 1155.24169921875 351.0299072265625 1155.24169921875 353.5045166015625 C 1155.24169921875 355.9793701171875 1154.755981445312 358.3829040527344 1153.7978515625 360.6483459472656 C 1152.87353515625 362.8341369628906 1151.55126953125 364.7961120605469 1149.867797851562 366.4798278808594 C 1148.184204101562 368.1636657714844 1146.222290039062 369.4862670898438 1144.036499023438 370.410888671875 C 1141.770874023438 371.3692932128906 1139.367065429688 371.8552551269531 1136.891723632812 371.8552551269531 Z" stroke="none"/>
              <path d="M 1136.891723632812 340.156005859375 C 1129.519287109375 340.156005859375 1123.5439453125 346.1335144042969 1123.5439453125 353.5045166015625 C 1123.5439453125 360.8770141601562 1129.519287109375 366.8552551269531 1136.891723632812 366.8552551269531 C 1144.265747070312 366.8552551269531 1150.24169921875 360.8770141601562 1150.24169921875 353.5045166015625 C 1150.24169921875 346.1335144042969 1144.265747070312 340.156005859375 1136.891723632812 340.156005859375 M 1136.891723632812 330.156005859375 C 1149.766967773438 330.156005859375 1160.24169921875 340.6300964355469 1160.24169921875 353.5045166015625 C 1160.24169921875 366.3801574707031 1149.766967773438 376.8552551269531 1136.891723632812 376.8552551269531 C 1124.017700195312 376.8552551269531 1113.5439453125 366.3801574707031 1113.5439453125 353.5045166015625 C 1113.5439453125 340.6300964355469 1124.017700195312 330.156005859375 1136.891723632812 330.156005859375 Z" stroke="none" fill="#010929"/>
            </g>
          </g>
        </g>
        <g id="Group_917" data-name="Group 917" transform="translate(236.933 118.468)">
          <g id="Group_916" data-name="Group 916">
            <g id="Path_1176" data-name="Path 1176" transform="translate(-1281.498 -182.202)" fill="#1b223f">
              <path d="M 1294.845825195312 213.8990173339844 C 1292.371459960938 213.8990173339844 1289.968383789062 213.4132995605469 1287.703369140625 212.4553833007812 C 1285.517944335938 211.5311279296875 1283.556274414062 210.2089996337891 1281.872802734375 208.5257415771484 C 1280.189086914062 206.8423156738281 1278.86669921875 204.8805694580078 1277.942260742188 202.6949920654297 C 1276.98388671875 200.4295043945312 1276.498046875 198.0257568359375 1276.498046875 195.5505065917969 C 1276.498046875 193.0755767822266 1276.98388671875 190.6720123291016 1277.942260742188 188.4065704345703 C 1278.86669921875 186.2211303710938 1280.189086914062 184.2594299316406 1281.872680664062 182.5759582519531 C 1283.556030273438 180.8925933837891 1285.517700195312 179.5703430175781 1287.703002929688 178.6459655761719 C 1289.96826171875 177.6878204345703 1292.371337890625 177.2019958496094 1294.845825195312 177.2019958496094 C 1297.320922851562 177.2019958496094 1299.724609375 177.687744140625 1301.990234375 178.6457366943359 C 1304.176025390625 179.5700531005859 1306.13818359375 180.8922424316406 1307.821899414062 182.5756225585938 C 1309.505737304688 184.2590789794922 1310.828369140625 186.2208557128906 1311.7529296875 188.4064331054688 C 1312.711303710938 190.6718597412109 1313.197265625 193.0754699707031 1313.197265625 195.5505065917969 C 1313.197265625 198.0258636474609 1312.711303710938 200.4296569824219 1311.7529296875 202.6951293945312 C 1310.828369140625 204.8808441162109 1309.505737304688 206.8426513671875 1307.82177734375 208.5260925292969 C 1306.137939453125 210.2093353271484 1304.175903320312 211.5314178466797 1301.989868164062 212.4556121826172 C 1299.724487304688 213.4133911132812 1297.320922851562 213.8990173339844 1294.845825195312 213.8990173339844 Z" stroke="none"/>
              <path d="M 1294.845825195312 208.8990173339844 C 1302.2197265625 208.8990173339844 1308.197265625 202.9244995117188 1308.197265625 195.5505065917969 C 1308.197265625 188.1780090332031 1302.2197265625 182.2019958496094 1294.845825195312 182.2019958496094 C 1287.4755859375 182.2019958496094 1281.498046875 188.1780090332031 1281.498046875 195.5505065917969 C 1281.498046875 202.9244995117188 1287.4755859375 208.8990173339844 1294.845825195312 208.8990173339844 M 1294.845825195312 218.8990173339844 C 1281.971801757812 218.8990173339844 1271.498046875 208.4249267578125 1271.498046875 195.5505065917969 C 1271.498046875 182.6760864257812 1281.971801757812 172.2019958496094 1294.845825195312 172.2019958496094 C 1307.721801757812 172.2019958496094 1318.197265625 182.6760864257812 1318.197265625 195.5505065917969 C 1318.197265625 208.4249267578125 1307.721801757812 218.8990173339844 1294.845825195312 218.8990173339844 Z" stroke="none" fill="#010929"/>
            </g>
          </g>
        </g>
        <g id="Group_919" data-name="Group 919" transform="translate(0 118.468)">
          <g id="Group_918" data-name="Group 918">
            <g id="Path_1177" data-name="Path 1177" transform="translate(-965.588 -182.202)" fill="#1b223f">
              <path d="M 978.9380493164062 213.8990173339844 C 976.4632568359375 213.8990173339844 974.059814453125 213.4133605957031 971.7945556640625 212.4555206298828 C 969.6088256835938 211.5313110351562 967.6468505859375 210.2092132568359 965.9631958007812 208.5259552001953 C 964.2793579101562 206.8425140380859 962.956787109375 204.8807220458984 962.0322265625 202.695068359375 C 961.0739135742188 200.4295806884766 960.5880126953125 198.0258178710938 960.5880126953125 195.5505065917969 C 960.5880126953125 193.0755157470703 961.0739135742188 190.6719207763672 962.0322875976562 188.4065093994141 C 962.9568481445312 186.2209625244141 964.2793579101562 184.2592163085938 965.9630737304688 182.5757598876953 C 967.646728515625 180.8923797607422 969.6085815429688 179.5701599121094 971.7943115234375 178.6458282470703 C 974.0596923828125 177.6877593994141 976.4631958007812 177.2019958496094 978.9380493164062 177.2019958496094 C 981.41259765625 177.2019958496094 983.81591796875 177.6877899169922 986.0811767578125 178.6458892822266 C 988.2666625976562 179.5702362060547 990.2284545898438 180.8924255371094 991.9120483398438 182.5757598876953 C 993.5957641601562 184.2592163085938 994.9182739257812 186.2209320068359 995.8428955078125 188.4063873291016 C 996.8013305664062 190.671875 997.2872924804688 193.0755004882812 997.2872924804688 195.5505065917969 C 997.2872924804688 198.0258331298828 996.8013305664062 200.4296417236328 995.8428955078125 202.6951904296875 C 994.9183349609375 204.8807678222656 993.595703125 206.8425140380859 991.9119262695312 208.5259399414062 C 990.2283325195312 210.2091522216797 988.2664794921875 211.5312194824219 986.0808715820312 212.4554595947266 C 983.8157348632812 213.413330078125 981.4125366210938 213.8990173339844 978.9380493164062 213.8990173339844 Z" stroke="none"/>
              <path d="M 978.9380493164062 208.8990173339844 C 986.3090209960938 208.8990173339844 992.2872924804688 202.9244995117188 992.2872924804688 195.5505065917969 C 992.2872924804688 188.1780090332031 986.3090209960938 182.2019958496094 978.9380493164062 182.2019958496094 C 971.5654907226562 182.2019958496094 965.5880126953125 188.1780090332031 965.5880126953125 195.5505065917969 C 965.5880126953125 202.9244995117188 971.5654907226562 208.8990173339844 978.9380493164062 208.8990173339844 M 978.9380493164062 218.8990173339844 C 966.0628051757812 218.8990173339844 955.5880126953125 208.4249267578125 955.5880126953125 195.5505065917969 C 955.5880126953125 182.6760864257812 966.0628051757812 172.2019958496094 978.9380493164062 172.2019958496094 C 991.8128662109375 172.2019958496094 1002.287292480469 182.6760864257812 1002.287292480469 195.5505065917969 C 1002.287292480469 208.4249267578125 991.8128662109375 218.8990173339844 978.9380493164062 218.8990173339844 Z" stroke="none" fill="#010929"/>
            </g>
          </g>
        </g>
        <g id="Group_931" data-name="Group 931" transform="translate(202.236 34.698)">
          <g id="Group_930" data-name="Group 930">
            <g id="Path_1180" data-name="Path 1180" transform="translate(-1235.236 -70.51)" fill="#1b223f">
              <path d="M 1248.58349609375 102.2078323364258 C 1246.202758789062 102.2078323364258 1243.880615234375 101.7556228637695 1241.681640625 100.8637847900391 C 1239.402465820312 99.939453125 1237.359497070312 98.58345031738281 1235.609497070312 96.83345031738281 C 1233.859619140625 95.083251953125 1232.50390625 93.04035949707031 1231.579833984375 90.76119232177734 C 1230.688354492188 88.56235504150391 1230.236328125 86.24038696289062 1230.236328125 83.85979461669922 C 1230.236328125 81.47923278808594 1230.688354492188 79.15724182128906 1231.579833984375 76.95833587646484 C 1232.503784179688 74.67915344238281 1233.859497070312 72.63616180419922 1235.60888671875 70.88613128662109 C 1237.358764648438 69.13558197021484 1239.401733398438 67.77900695800781 1241.680908203125 66.85424041748047 C 1243.880126953125 65.96193695068359 1246.202514648438 65.50950622558594 1248.58349609375 65.50950622558594 C 1250.964477539062 65.50949096679688 1253.286743164062 65.96194458007812 1255.485961914062 66.85425567626953 C 1257.76513671875 67.77902984619141 1259.80810546875 69.13563537597656 1261.55810546875 70.88639068603516 C 1263.307250976562 72.63480377197266 1264.663818359375 74.67782592773438 1265.588623046875 76.95712280273438 C 1266.48095703125 79.15639495849609 1266.933471679688 81.47878265380859 1266.933471679688 83.85979461669922 C 1266.933471679688 86.24082946777344 1266.48095703125 88.56320190429688 1265.588623046875 90.76240539550781 C 1264.663818359375 93.04167938232422 1263.30712890625 95.08462524414062 1261.556274414062 96.83446502685547 C 1259.807373046875 98.58340454101562 1257.764404296875 99.93942260742188 1255.485229492188 100.86376953125 C 1253.286254882812 101.7556228637695 1250.964111328125 102.2078323364258 1248.58349609375 102.2078323364258 Z" stroke="none"/>
              <path d="M 1248.58349609375 97.20782470703125 C 1251.999389648438 97.20782470703125 1255.415161132812 95.90451049804688 1258.021728515625 93.29788208007812 C 1263.2373046875 88.08538055419922 1263.2373046875 79.63438415527344 1258.021728515625 74.42112731933594 C 1252.80859375 69.20562744140625 1244.3583984375 69.20562744140625 1239.14501953125 74.42112731933594 C 1233.933349609375 79.63438415527344 1233.933349609375 88.08538055419922 1239.14501953125 93.29788208007812 C 1241.751708984375 95.90451049804688 1245.167602539062 97.20782470703125 1248.58349609375 97.20782470703125 M 1248.58349609375 107.2078247070312 C 1242.347412109375 107.2078247070312 1236.484252929688 104.7790985107422 1232.074096679688 100.3690567016602 C 1222.972534179688 91.26601409912109 1222.972290039062 76.45454406738281 1232.072875976562 67.35114288330078 C 1236.48291015625 62.93935394287109 1242.346557617188 60.50949859619141 1248.58349609375 60.50949859619141 C 1254.820434570312 60.50949859619141 1260.684204101562 62.93942642211914 1265.094360351562 67.35166931152344 C 1269.50341796875 71.75878143310547 1271.933471679688 77.62259674072266 1271.933471679688 83.85978698730469 C 1271.933349609375 90.09723663330078 1269.503295898438 95.96105194091797 1265.090698242188 100.3710403442383 C 1260.682861328125 104.7790298461914 1254.819702148438 107.2078247070312 1248.58349609375 107.2078247070312 Z" stroke="none" fill="#010929"/>
            </g>
          </g>
        </g>
        <g id="Group_933" data-name="Group 933" transform="translate(34.7 202.235)">
          <g id="Group_932" data-name="Group 932">
            <g id="Path_1181" data-name="Path 1181" transform="translate(-1011.854 -293.892)" fill="#1b223f">
              <path d="M 1025.201904296875 325.5887145996094 C 1022.821350097656 325.5887145996094 1020.499389648438 325.1366882324219 1018.300537109375 324.2451171875 C 1016.021362304688 323.3210144042969 1013.978454589844 321.9653015136719 1012.228576660156 320.2156982421875 C 1010.478271484375 318.4651489257812 1009.122497558594 316.4222106933594 1008.198303222656 314.1430969238281 C 1007.306640625 311.9441528320312 1006.8544921875 309.6221313476562 1006.8544921875 307.2415161132812 C 1006.8544921875 304.8609008789062 1007.306640625 302.5388793945312 1008.198303222656 300.3399353027344 C 1009.122497558594 298.0608215332031 1010.478271484375 296.0178833007812 1012.22802734375 294.2678833007812 C 1013.977172851562 292.5177612304688 1016.020080566406 291.1611022949219 1018.299377441406 290.2362976074219 C 1020.498596191406 289.3439636230469 1022.820922851562 288.8915100097656 1025.201904296875 288.8915100097656 C 1027.582885742188 288.8915100097656 1029.9052734375 289.3439636230469 1032.1044921875 290.2362976074219 C 1034.3837890625 291.1611022949219 1036.426635742188 292.5177917480469 1038.176513671875 294.2686462402344 C 1039.925415039062 296.016845703125 1041.281982421875 298.059814453125 1042.206787109375 300.3390197753906 C 1043.098999023438 302.5382385253906 1043.551513671875 304.8605651855469 1043.551513671875 307.2415161132812 C 1043.551513671875 309.6224975585938 1043.098999023438 311.94482421875 1042.206787109375 314.14404296875 C 1041.281982421875 316.4232177734375 1039.925415039062 318.4661865234375 1038.174682617188 320.2161865234375 C 1036.42529296875 321.9653015136719 1034.382446289062 323.3210144042969 1032.103271484375 324.2451171875 C 1029.904418945312 325.1366882324219 1027.58251953125 325.5887145996094 1025.201904296875 325.5887145996094 Z" stroke="none"/>
              <path d="M 1025.201904296875 320.5887145996094 C 1028.617797851562 320.5887145996094 1032.03369140625 319.2857971191406 1034.639892578125 316.6799011230469 C 1039.855346679688 311.4666442871094 1039.855346679688 303.0164184570312 1034.639892578125 297.8031311035156 C 1029.427490234375 292.5876159667969 1020.976379394531 292.5876159667969 1015.763854980469 297.8031311035156 C 1010.551391601562 303.0164184570312 1010.551391601562 311.4666442871094 1015.763854980469 316.6799011230469 C 1018.3701171875 319.2857971191406 1021.786010742188 320.5887145996094 1025.201904296875 320.5887145996094 M 1025.201904296875 330.5887145996094 C 1018.965881347656 330.5887145996094 1013.10302734375 328.1605529785156 1008.693298339844 323.7514953613281 C 999.5906372070312 314.6473999023438 999.5906372070312 299.835693359375 1008.692199707031 290.7326354980469 C 1013.100769042969 286.3215637207031 1018.964538574219 283.8915100097656 1025.201904296875 283.8915100097656 C 1031.439331054688 283.8915100097656 1037.303100585938 286.3216247558594 1041.713012695312 290.7341613769531 C 1046.12158203125 295.140869140625 1048.551513671875 301.0045776367188 1048.551513671875 307.2415161132812 C 1048.551513671875 313.4784545898438 1046.12158203125 319.3421630859375 1041.70947265625 323.75244140625 C 1037.300903320312 328.1605224609375 1031.43798828125 330.5887145996094 1025.201904296875 330.5887145996094 Z" stroke="none" fill="#010929"/>
            </g>
          </g>
        </g>
        <g id="Group_945" data-name="Group 945" transform="translate(202.236 202.235)">
          <g id="Group_944" data-name="Group 944">
            <g id="Path_1184" data-name="Path 1184" transform="translate(-1235.236 -293.892)" fill="#1b223f">
              <path d="M 1248.583862304688 325.5887145996094 C 1246.203125 325.5887145996094 1243.881103515625 325.1366882324219 1241.682250976562 324.2451782226562 C 1239.403076171875 323.3211364746094 1237.360107421875 321.9655151367188 1235.609985351562 320.2159729003906 C 1233.859497070312 318.4648742675781 1232.50390625 316.4219360351562 1231.579833984375 314.1428527832031 C 1230.688354492188 311.9440002441406 1230.236328125 309.6220397949219 1230.236328125 307.2415161132812 C 1230.236328125 304.8609924316406 1230.688354492188 302.5390625 1231.579833984375 300.3401794433594 C 1232.50390625 298.0610961914062 1233.859497070312 296.0181884765625 1235.60888671875 294.2681579589844 C 1237.358764648438 292.517578125 1239.40185546875 291.1609802246094 1241.681030273438 290.2362365722656 C 1243.880249023438 289.3439331054688 1246.202758789062 288.8915100097656 1248.583862304688 288.8915100097656 C 1250.96484375 288.8915100097656 1253.287353515625 289.3439025878906 1255.48681640625 290.236083984375 C 1257.76611328125 291.16064453125 1259.8095703125 292.5169677734375 1261.560180664062 294.267333984375 C 1263.310424804688 296.0179138183594 1264.666259765625 298.0608520507812 1265.590454101562 300.3399658203125 C 1266.482055664062 302.5389099121094 1266.934204101562 304.8609313964844 1266.934204101562 307.2415161132812 C 1266.934204101562 309.6221313476562 1266.482055664062 311.9441528320312 1265.590454101562 314.1430969238281 C 1264.666259765625 316.4221801757812 1263.310424804688 318.4651184082031 1261.560791015625 320.2151489257812 C 1259.808227539062 321.9661254882812 1257.764892578125 323.3214721679688 1255.485717773438 324.2453002929688 C 1253.286499023438 325.1367492675781 1250.96435546875 325.5887145996094 1248.583862304688 325.5887145996094 Z" stroke="none"/>
              <path d="M 1248.583862304688 320.5887145996094 C 1252.000122070312 320.5887145996094 1255.416748046875 319.2857971191406 1258.02490234375 316.6799011230469 C 1263.2373046875 311.4666442871094 1263.2373046875 303.0164184570312 1258.02490234375 297.8031311035156 C 1252.80859375 292.5876159667969 1244.3583984375 292.5876159667969 1239.14501953125 297.8031311035156 C 1233.933349609375 303.0164184570312 1233.933349609375 311.4666442871094 1239.14501953125 316.6799011230469 C 1241.751708984375 319.2857971191406 1245.167602539062 320.5887145996094 1248.583862304688 320.5887145996094 M 1248.583862304688 330.5887145996094 C 1242.348022460938 330.5887145996094 1236.485107421875 328.1607666015625 1232.075073242188 323.7520751953125 C 1222.972900390625 314.6471557617188 1222.972900390625 299.8359375 1232.072875976562 290.733154296875 C 1236.48291015625 286.3213806152344 1242.3466796875 283.8915100097656 1248.583862304688 283.8915100097656 C 1254.819946289062 283.8915100097656 1260.683837890625 286.3206787109375 1265.095458984375 290.7315063476562 C 1274.197998046875 299.835693359375 1274.197998046875 314.6473693847656 1265.096557617188 323.7503967285156 C 1260.681640625 328.1614685058594 1254.818603515625 330.5887145996094 1248.583862304688 330.5887145996094 Z" stroke="none" fill="#010929"/>
            </g>
          </g>
        </g>
        <g id="Group_947" data-name="Group 947" transform="translate(34.7 34.698)">
          <g id="Group_946" data-name="Group 946">
            <g id="Path_1185" data-name="Path 1185" transform="translate(-1011.854 -70.51)" fill="#1b223f">
              <path d="M 1025.201904296875 102.2078323364258 C 1022.821166992188 102.2078323364258 1020.499084472656 101.7556228637695 1018.300048828125 100.8637619018555 C 1016.020874023438 99.93936157226562 1013.977966308594 98.58327484130859 1012.228088378906 96.83316040039062 C 1010.478454589844 95.08353424072266 1009.12255859375 93.04063415527344 1008.198303222656 90.76144409179688 C 1007.306640625 88.56252288818359 1006.8544921875 86.24047088623047 1006.8544921875 83.85979461669922 C 1006.8544921875 81.47914123535156 1007.306640625 79.15707397460938 1008.198303222656 76.95809173583984 C 1009.122497558594 74.67888641357422 1010.478271484375 72.63587951660156 1012.228088378906 70.88585662841797 C 1013.977172851562 69.13576507568359 1016.020080566406 67.77908325195312 1018.299377441406 66.85426330566406 C 1020.498596191406 65.96194458007812 1022.820922851562 65.50950622558594 1025.201904296875 65.50950622558594 C 1027.582885742188 65.50949096679688 1029.9052734375 65.96194458007812 1032.1044921875 66.85427093505859 C 1034.3837890625 67.77910614013672 1036.426635742188 69.13578033447266 1038.176513671875 70.88664245605469 C 1039.925415039062 72.63484191894531 1041.281982421875 74.67786407470703 1042.206787109375 76.95716094970703 C 1043.098999023438 79.15641021728516 1043.551513671875 81.47879028320312 1043.551513671875 83.85979461669922 C 1043.551513671875 86.24081420898438 1043.098999023438 88.56318664550781 1042.206787109375 90.76235961914062 C 1041.281860351562 93.04164123535156 1039.92529296875 95.08457946777344 1038.174438476562 96.83442687988281 C 1036.425903320312 98.583251953125 1034.382934570312 99.93935394287109 1032.103759765625 100.8637542724609 C 1029.90478515625 101.755615234375 1027.582641601562 102.2078323364258 1025.201904296875 102.2078323364258 Z" stroke="none"/>
              <path d="M 1025.201904296875 97.20782470703125 C 1028.617797851562 97.20782470703125 1032.03369140625 95.90451049804688 1034.639892578125 93.29788208007812 C 1039.855346679688 88.08538055419922 1039.855346679688 79.63438415527344 1034.639892578125 74.42112731933594 C 1029.427490234375 69.20562744140625 1020.976379394531 69.20562744140625 1015.763854980469 74.42112731933594 C 1010.551391601562 79.63438415527344 1010.551391601562 88.08538055419922 1015.763854980469 93.29788208007812 C 1018.3701171875 95.90451049804688 1021.786010742188 97.20782470703125 1025.201904296875 97.20782470703125 M 1025.201904296875 107.2078247070312 C 1018.96533203125 107.2078247070312 1013.102111816406 104.7789001464844 1008.692321777344 100.3684692382812 C 999.5901489257812 91.26625823974609 999.5899658203125 76.45429992675781 1008.692260742188 67.35060119628906 C 1013.100769042969 62.93956756591797 1018.964538574219 60.50949859619141 1025.201904296875 60.50949859619141 C 1031.439331054688 60.50949859619141 1037.303100585938 62.93959808349609 1041.713012695312 67.35215759277344 C 1046.12158203125 71.75885772705078 1048.551513671875 77.62265777587891 1048.551513671875 83.85978698730469 C 1048.551513671875 90.09719848632812 1046.121459960938 95.96098327636719 1041.708984375 100.3709411621094 C 1037.3017578125 104.7788543701172 1031.438598632812 107.2078247070312 1025.201904296875 107.2078247070312 Z" stroke="none" fill="#010929"/>
            </g>
          </g>
        </g>
      </g>
    </g>
    <g id="Group_973" data-name="Group 973" transform="translate(1190.635 34.84)">
      <g id="Group_966" data-name="Group 966" transform="translate(11.275)">
        <g id="Group_965" data-name="Group 965">
          <rect id="Rectangle_128" data-name="Rectangle 128" width="3.7" height="6.991" rx="1.85" fill="#61f7d0"/>
        </g>
      </g>
      <g id="Group_968" data-name="Group 968" transform="translate(11.275 19.258)">
        <g id="Group_967" data-name="Group 967">
          <rect id="Rectangle_129" data-name="Rectangle 129" width="3.7" height="6.99" rx="1.85" fill="#61f7d0"/>
        </g>
      </g>
      <g id="Group_970" data-name="Group 970" transform="translate(19.258 11.275)">
        <g id="Group_969" data-name="Group 969">
          <rect id="Rectangle_130" data-name="Rectangle 130" width="6.99" height="3.7" rx="1.85" fill="#61f7d0"/>
        </g>
      </g>
      <g id="Group_972" data-name="Group 972" transform="translate(0 11.275)">
        <g id="Group_971" data-name="Group 971">
          <rect id="Rectangle_131" data-name="Rectangle 131" width="6.991" height="3.7" rx="1.85" fill="#61f7d0"/>
        </g>
      </g>
    </g>
    <g id="Group_982" data-name="Group 982" transform="translate(962.649)">
      <g id="Group_975" data-name="Group 975" transform="translate(11.275)">
        <g id="Group_974" data-name="Group 974">
          <rect id="Rectangle_132" data-name="Rectangle 132" width="3.701" height="6.988" rx="1.851" fill="#61f7d0"/>
        </g>
      </g>
      <g id="Group_977" data-name="Group 977" transform="translate(11.275 19.257)">
        <g id="Group_976" data-name="Group 976">
          <rect id="Rectangle_133" data-name="Rectangle 133" width="3.701" height="6.991" rx="1.851" fill="#61f7d0"/>
        </g>
      </g>
      <g id="Group_979" data-name="Group 979" transform="translate(19.258 11.272)">
        <g id="Group_978" data-name="Group 978">
          <rect id="Rectangle_134" data-name="Rectangle 134" width="6.99" height="3.7" rx="1.85" fill="#61f7d0"/>
        </g>
      </g>
      <g id="Group_981" data-name="Group 981" transform="translate(0 11.272)">
        <g id="Group_980" data-name="Group 980">
          <rect id="Rectangle_135" data-name="Rectangle 135" width="6.991" height="3.7" rx="1.85" fill="#61f7d0"/>
        </g>
      </g>
    </g>
    <g id="Group_991" data-name="Group 991" transform="translate(941.342 228.949)">
      <g id="Group_984" data-name="Group 984" transform="translate(11.273)">
        <g id="Group_983" data-name="Group 983">
          <rect id="Rectangle_136" data-name="Rectangle 136" width="3.701" height="6.99" rx="1.851" fill="#61f7d0"/>
        </g>
      </g>
      <g id="Group_986" data-name="Group 986" transform="translate(11.273 19.257)">
        <g id="Group_985" data-name="Group 985">
          <rect id="Rectangle_137" data-name="Rectangle 137" width="3.701" height="6.991" rx="1.851" fill="#61f7d0"/>
        </g>
      </g>
      <g id="Group_988" data-name="Group 988" transform="translate(19.258 11.274)">
        <g id="Group_987" data-name="Group 987">
          <rect id="Rectangle_138" data-name="Rectangle 138" width="6.99" height="3.701" rx="1.851" fill="#61f7d0"/>
        </g>
      </g>
      <g id="Group_990" data-name="Group 990" transform="translate(0 11.274)">
        <g id="Group_989" data-name="Group 989">
          <rect id="Rectangle_139" data-name="Rectangle 139" width="6.988" height="3.701" rx="1.851" fill="#61f7d0"/>
        </g>
      </g>
    </g>
    <g id="Group_993" data-name="Group 993" transform="translate(994.786 38.046)">
      <g id="Group_992" data-name="Group 992">
        <path id="Path_1194" data-name="Path 1194" d="M1020.166,54.513a3.783,3.783,0,1,1-3.783-3.784A3.784,3.784,0,0,1,1020.166,54.513Z" transform="translate(-1012.6 -50.728)" fill="#dfdfdf"/>
      </g>
    </g>
    <g id="Group_995" data-name="Group 995" transform="translate(1223.386 282.044)">
      <g id="Group_994" data-name="Group 994" transform="translate(0)">
        <path id="Path_1195" data-name="Path 1195" d="M1335.357,385.036a8.978,8.978,0,1,1-8.978-8.978A8.977,8.977,0,0,1,1335.357,385.036Z" transform="translate(-1317.401 -376.058)" fill="#61f7d0"/>
      </g>
    </g>
    <g id="Group_997" data-name="Group 997" transform="translate(1193.204 271.357)">
      <g id="Group_996" data-name="Group 996">
        <path id="Path_1196" data-name="Path 1196" d="M1284.385,365.423a3.614,3.614,0,1,1-3.615-3.614A3.613,3.613,0,0,1,1284.385,365.423Z" transform="translate(-1277.158 -361.809)" fill="#ff4b2b"/>
      </g>
    </g>
  </g>
</svg>
