<svg xmlns="http://www.w3.org/2000/svg" width="300" height="300" viewBox="0 0 300 300">
  <g id="Group_2409" data-name="Group 2409" transform="translate(-224.87 -224.59)">
    <path id="Path_1154" data-name="Path 1154" d="M318.62,224.59a93.75,93.75,0,1,0,21.15,185.08c1.32-.3,2.62-.63,3.91-1,.34-1.35.7-2.67,1.11-3.99-1.33.4-2.67.77-4.03,1.11a90.1,90.1,0,1,1,65.32-65.31c-.34,1.35-.71,2.7-1.12,4.03,1.32-.41,2.64-.78,3.99-1.11.37-1.29.7-2.59,1-3.91a93.738,93.738,0,0,0-91.33-114.9Z" fill="#fff" opacity="0.1"/>
    <path id="Path_1" data-name="Path 1" d="M347.611,311.333a7.426,7.426,0,0,1-7.431,7.406H299.989l39.952,61.9a65.774,65.774,0,0,1-9.588,2.487L288.8,318.735H266.632l41.716,64.636a65.445,65.445,0,0,1-54.6-74.735h0q.369-2.373.912-4.712h85.51A7.426,7.426,0,0,1,347.611,311.333Zm-28.99-58.025a65.654,65.654,0,0,0-56.468,32.041h78.029a25.985,25.985,0,0,1,0,51.969h-6.039l22.458,34.8a65.4,65.4,0,0,0-37.98-118.809Z" fill="#ff416c"/>
    <path id="Path_1159" data-name="Path 1159" d="M431.12,337.09a94.037,94.037,0,0,0-21.17,2.4q-1.95.45-3.87.99c-.34,1.35-.71,2.7-1.12,4.03,1.32-.41,2.64-.78,3.99-1.11a90.112,90.112,0,1,1-65.27,65.27c.34-1.35.7-2.67,1.11-3.99-1.33.4-2.67.77-4.03,1.11-.36,1.28-.69,2.57-.99,3.88a93.762,93.762,0,1,0,91.35-72.58Z" fill="#fff" opacity="0.1"/>
    <g id="Group_856" data-name="Group 856">
      <g id="Group_855" data-name="Group 855">
        <path id="Path_1162" data-name="Path 1162" d="M453.043,426.553a18.514,18.514,0,0,0-3.409-36.711h-7.7V372.1H430.9v17.747h-6.977V372.1H412.9v17.747H390.5v11.89h8.269s5.115-.734,5.115,5v48.4c0,5.732-5.115,5-5.115,5H390.5v11.89H412.9V489.6h11.029V472.012h0v-.155H430.9v17.731h11.03V471.856h10.85a22.653,22.653,0,0,0,.257-45.3ZM423.927,402.48H436.1a10.916,10.916,0,1,1,.209,21.831H423.927Zm25.51,53.273a11.784,11.784,0,0,1-8.36,3.461h-17.15V435.568h17.149a11.826,11.826,0,0,1,8.36,20.185Z" fill="#fecc2f"/>
      </g>
    </g>
    <g id="Group_865" data-name="Group 865">
      <g id="Group_858" data-name="Group 858">
        <g id="Group_857" data-name="Group 857">
          <rect id="Rectangle_112" data-name="Rectangle 112" width="3.185" height="6.026" rx="1.592" transform="translate(263.816 481.219)" fill="#61f7d0"/>
        </g>
      </g>
      <g id="Group_860" data-name="Group 860">
        <g id="Group_859" data-name="Group 859">
          <rect id="Rectangle_113" data-name="Rectangle 113" width="3.185" height="6.026" rx="1.592" transform="translate(263.816 497.823)" fill="#61f7d0"/>
        </g>
      </g>
      <g id="Group_862" data-name="Group 862">
        <g id="Group_861" data-name="Group 861">
          <rect id="Rectangle_114" data-name="Rectangle 114" width="6.026" height="3.185" rx="1.592" transform="translate(270.696 490.942)" fill="#61f7d0"/>
        </g>
      </g>
      <g id="Group_864" data-name="Group 864">
        <g id="Group_863" data-name="Group 863">
          <rect id="Rectangle_115" data-name="Rectangle 115" width="6.029" height="3.185" rx="1.592" transform="translate(254.092 490.943)" fill="#61f7d0"/>
        </g>
      </g>
    </g>
    <g id="Group_874" data-name="Group 874">
      <g id="Group_867" data-name="Group 867">
        <g id="Group_866" data-name="Group 866">
          <rect id="Rectangle_116" data-name="Rectangle 116" width="3.185" height="6.026" rx="1.592" transform="translate(467.94 242.664)" fill="#61f7d0"/>
        </g>
      </g>
      <g id="Group_869" data-name="Group 869">
        <g id="Group_868" data-name="Group 868">
          <rect id="Rectangle_117" data-name="Rectangle 117" width="3.185" height="6.026" rx="1.592" transform="translate(467.94 259.268)" fill="#61f7d0"/>
        </g>
      </g>
      <g id="Group_871" data-name="Group 871">
        <g id="Group_870" data-name="Group 870">
          <rect id="Rectangle_118" data-name="Rectangle 118" width="6.029" height="3.185" rx="1.592" transform="translate(474.821 252.385)" fill="#61f7d0"/>
        </g>
      </g>
      <g id="Group_873" data-name="Group 873">
        <g id="Group_872" data-name="Group 872">
          <rect id="Rectangle_119" data-name="Rectangle 119" width="6.026" height="3.185" rx="1.592" transform="translate(458.219 252.388)" fill="#61f7d0"/>
        </g>
      </g>
    </g>
    <g id="Group_876" data-name="Group 876">
      <g id="Group_875" data-name="Group 875">
        <path id="Path_1163" data-name="Path 1163" d="M503.235,306.178a6.607,6.607,0,1,1-6.607-6.607,6.607,6.607,0,0,1,6.607,6.607Z" fill="#ff416c"/>
      </g>
    </g>
    <g id="Group_878" data-name="Group 878">
      <g id="Group_877" data-name="Group 877">
        <path id="Path_1164" data-name="Path 1164" d="M290.929,432.506a8.531,8.531,0,1,1-8.531-8.533A8.532,8.532,0,0,1,290.929,432.506Z" fill="#ff416c"/>
      </g>
    </g>
    <g id="Group_886" data-name="Group 886">
      <g id="Group_880" data-name="Group 880">
        <g id="Group_879" data-name="Group 879">
          <path id="Path_1165" data-name="Path 1165" d="M423.75,374.59A48.75,48.75,0,1,1,375,325.841h0A48.75,48.75,0,0,1,423.75,374.59Z" fill="#fff"/>
        </g>
      </g>
      <g id="Group_885" data-name="Group 885">
        <g id="Group_10" data-name="Group 10">
          <path id="Path_13" data-name="Path 13" d="M390.714,382.262l-13.187,13.191A9.061,9.061,0,0,1,364.55,382.8c.054-.056.11-.11.165-.164l18.8-18.8a5.334,5.334,0,0,0-7.543-7.543l-15.144,15.144-2.635-2.635,15.145-15.145a9.06,9.06,0,0,1,12.813,12.813h0l-18.8,18.8a5.335,5.335,0,0,0,7.417,7.67c.043-.041.085-.084.126-.127l13.185-13.184Z" fill="#ff416c"/>
        </g>
        <g id="Group_11" data-name="Group 11">
          <path id="Path_14" data-name="Path 14" d="M391.815,389.768a1.863,1.863,0,0,1-3.179-1.316v-6.827l-6.726-.005a1.863,1.863,0,0,1,0-3.726h8.588a1.861,1.861,0,0,1,1.863,1.859h0v8.7A1.852,1.852,0,0,1,391.815,389.768Z" fill="#ff416c"/>
        </g>
        <g id="Group_12" data-name="Group 12">
          <path id="Path_15" data-name="Path 15" d="M368.762,372.132a1.859,1.859,0,0,1-1.317.546h-8.689a1.862,1.862,0,0,1-1.863-1.86v-8.586a1.863,1.863,0,1,1,3.726-.019v6.74h6.824a1.863,1.863,0,0,1,1.318,3.179Z" fill="#ff416c"/>
        </g>
      </g>
    </g>
  </g>
</svg>
