<svg xmlns="http://www.w3.org/2000/svg" width="130.797" height="23.306" viewBox="0 0 130.797 23.306">
  <g id="Group_599" data-name="Group 599" transform="translate(0 -4)">
    <path id="Path_2080" data-name="Path 2080" d="M.6-18.2v4.6H5.122V0h5.122V-13.6h4.55v-4.6ZM30.082-6.37,27.17-12.558H25.142L22.386-6.37l-2.314-6.89H14.846v.286L20.384,0h3.042l2.782-6.162L29.042,0h3.042l5.538-13v-.26H32.37Zm11.544-8.5a2.607,2.607,0,0,0,2.756-2.574,2.572,2.572,0,0,0-2.756-2.548,2.6,2.6,0,0,0-2.782,2.548A2.615,2.615,0,0,0,41.626-14.872ZM44.018,0V-13.26H39.234V0ZM54.08-3.64c-1.534,0-2.5-.884-2.5-2.678v-3.3h4.082v-3.64l-4.082.026v-3.978h-.39L46.8-14.95V-6.4c0,2.834.962,6.708,6.084,6.708a15.845,15.845,0,0,0,3.2-.364V-3.874A9.116,9.116,0,0,1,54.08-3.64Zm11.024,0c-1.534,0-2.5-.884-2.5-2.678v-3.3H66.69v-3.64l-4.082.026v-3.978h-.39L57.824-14.95V-6.4c0,2.834.962,6.708,6.084,6.708a15.845,15.845,0,0,0,3.2-.364V-3.874A9.116,9.116,0,0,1,65.1-3.64Zm10.114-9.932c-4,0-6.942,2.548-6.942,6.838,0,3.978,2.6,7.046,7.254,7.046A12.836,12.836,0,0,0,80.756-.806V-4.082a12.665,12.665,0,0,1-4.55.936c-2.028,0-3.25-.884-3.64-2.522h9c.026-.234.052-.7.052-.962C81.64-10.79,79.4-13.572,75.218-13.572Zm-.052,3.406A2.154,2.154,0,0,1,77.48-8.138H72.592A2.517,2.517,0,0,1,75.166-10.166Zm17.576-3.406a5.25,5.25,0,0,0-4.108,2.834V-13.26H83.85V0h4.784V-8.086A6.092,6.092,0,0,1,91.6-8.814a5.474,5.474,0,0,1,1.664.234v-4.94A2.682,2.682,0,0,0,92.742-13.572Z" transform="translate(37.534 26.994)" fill="#fff"/>
    <path id="Icon_awesome-twitter" data-name="Icon awesome-twitter" d="M23.327,8.864c.017.241.017.481.017.722,0,7.339-5.362,15.8-15.161,15.8A14.623,14.623,0,0,1,0,22.889a10.585,10.585,0,0,0,1.287.069A10.4,10.4,0,0,0,7.9,20.585a5.37,5.37,0,0,1-4.982-3.85,6.456,6.456,0,0,0,1.006.086,5.423,5.423,0,0,0,1.4-.189,5.5,5.5,0,0,1-4.273-5.448v-.069a5.2,5.2,0,0,0,2.409.7A5.612,5.612,0,0,1,1.089,7.2a5.687,5.687,0,0,1,.726-2.8A14.955,14.955,0,0,0,12.8,10.2a6.519,6.519,0,0,1-.132-1.272A5.441,5.441,0,0,1,18,3.381a5.219,5.219,0,0,1,3.893,1.753,10.239,10.239,0,0,0,3.382-1.341,5.5,5.5,0,0,1-2.343,3.059A10.347,10.347,0,0,0,26,5.993a11.728,11.728,0,0,1-2.673,2.87Z" transform="translate(0 0.619)" fill="#fff"/>
  </g>
</svg>
