<svg xmlns="http://www.w3.org/2000/svg" width="145.9" height="20.813" viewBox="0 0 145.9 20.813">
  <g id="Group_596" data-name="Group 596" transform="translate(0 -6)">
    <path id="Path_2077" data-name="Path 2077" d="M9.386-10.452,5.408-18.2H.1v.364L6.838-6.344V0H11.96V-6.318l6.708-11.518V-18.2h-5.33ZM23.842.312c4.108,0,7.41-2.808,7.41-6.942s-3.3-6.942-7.436-6.942c-4.082,0-7.384,2.808-7.384,6.942S19.734.312,23.842.312Zm0-4.056A2.774,2.774,0,0,1,21.008-6.63a2.774,2.774,0,0,1,2.834-2.886A2.774,2.774,0,0,1,26.676-6.63,2.774,2.774,0,0,1,23.842-3.744ZM42.3-4.706a3.291,3.291,0,0,1-2.236,1.014c-1.17,0-1.924-.806-1.924-2.21V-13.26H33.358v8.4c0,3.562,2.21,5.174,4.888,5.174A5.57,5.57,0,0,0,42.3-1.482V0h4.81V-13.26H42.3ZM57.148-3.64c-1.534,0-2.5-.884-2.5-2.678v-3.3h4.082v-3.64l-4.082.026v-3.978h-.39L49.868-14.95V-6.4c0,2.834.962,6.708,6.084,6.708a15.845,15.845,0,0,0,3.2-.364V-3.874A9.116,9.116,0,0,1,57.148-3.64ZM69.992-4.706a3.291,3.291,0,0,1-2.236,1.014c-1.17,0-1.924-.806-1.924-2.21V-13.26H61.048v8.4c0,3.562,2.21,5.174,4.888,5.174a5.57,5.57,0,0,0,4.056-1.794V0H74.8V-13.26h-4.81Zm16.64-8.866a5.737,5.737,0,0,0-4.056,1.612V-19.5h-4.81V0h4.81V-1.3A5.737,5.737,0,0,0,86.632.312c3.588,0,6.344-2.73,6.344-6.942S90.22-13.572,86.632-13.572Zm-1.3,10.088a4.524,4.524,0,0,1-2.756-1.04V-8.736a4.524,4.524,0,0,1,2.756-1.04A2.969,2.969,0,0,1,88.4-6.63,2.969,2.969,0,0,1,85.332-3.484ZM101.5-13.572c-4,0-6.942,2.548-6.942,6.838,0,3.978,2.6,7.046,7.254,7.046a12.836,12.836,0,0,0,5.226-1.118V-4.082a12.665,12.665,0,0,1-4.55.936c-2.028,0-3.25-.884-3.64-2.522h9c.026-.234.052-.7.052-.962C107.926-10.79,105.69-13.572,101.5-13.572Zm-.052,3.406a2.154,2.154,0,0,1,2.314,2.028H98.878A2.517,2.517,0,0,1,101.452-10.166Z" transform="translate(38 26.5)" fill="#fff"/>
    <path id="Icon_awesome-youtube" data-name="Icon awesome-youtube" d="M26.507,7.316a3.242,3.242,0,0,0-2.3-2.278C22.18,4.5,14.05,4.5,14.05,4.5s-8.13,0-10.158.538a3.242,3.242,0,0,0-2.3,2.278,33.237,33.237,0,0,0-.543,6.2,33.237,33.237,0,0,0,.543,6.2,3.2,3.2,0,0,0,2.3,2.242C5.92,22.5,14.05,22.5,14.05,22.5s8.13,0,10.158-.538a3.2,3.2,0,0,0,2.3-2.242,33.237,33.237,0,0,0,.543-6.2,33.237,33.237,0,0,0-.543-6.2ZM11.391,17.325V9.712l6.8,3.806-6.8,3.806Z" transform="translate(-1.05 1.5)" fill="#fff" opacity="0.8"/>
  </g>
</svg>
